999
DXF file: lenz_pixelboard_laser.dxf
999
Pro/ENGINEER 2021164 by Parametric Technology Corporation
  0
SECTION
  2
HEADER
  9
$ACADVER
  1
AC1015
  9
$DWGCODEPAGE
  3
ANSI_1252
  9
$EXTMAX
 10
210.0
 20
297.0
 30
0.0
  9
$EXTMIN
 10
0.0
 20
0.0
 30
0.0
  9
$LIMMIN
 10
0.0
 20
0.0
  9
$LIMMAX
 10
210.0
 20
297.0
  9
$VIEWCTR
 10
105.0
 20
148.5
  9
$VIEWSIZE
 40
297.0
  9
$CLAYER
  8
0
  9
$LTSCALE
 40
19.36
  9
$CELTYPE
  6
BYLAYER
  9
$DIMSCALE
 40
1.0
  9
$DIMASZ
 40
3.5
  9
$DIMEXO
 40
0.0
  9
$DIMDLI
 40
13.376
  9
$DIMEXE
 40
1.0
  9
$DIMCEN
 40
3.168
  9
$DIMLFAC
 40
1.0
  9
$DIMBLK
  1
_FILLED
  9
$DIMALT
 70
0
  9
$DIMALTF
 40
0.0393700787
  9
$DIMTXT
 40
3.5
  9
$DIMTOL
 70
1
  9
$DIMLIM
 70
0
  9
$DIMTFAC
 40
1.0
  9
$DIMTP
 40
0.001
  9
$DIMTM
 40
0.001
  9
$DIMGAP
 40
0.625
  9
$DIMDSEP
 70
46
  9
$AUNITS
 70
0
  9
$PDMODE
 70
3
  9
$PDSIZE
 40
1.5
  9
$HANDSEED
  5
406
  9
$TILEMODE
 70
1
  9
$MEASUREMENT
 70
1
  9
$INSUNITS
 70
4
  0
ENDSEC
  0
SECTION
  2
CLASSES
  0
CLASS
  1
ACDBDICTIONARYWDFLT
  2
AcDbDictionaryWithDefault
  3
AutoCAD 2000
 90
0
280
0
281
0
  0
CLASS
  1
ACDBPLACEHOLDER
  2
AcDbPlaceHolder
  3
AutoCAD 2000
 90
0
280
0
281
0
  0
CLASS
  1
LAYOUT
  2
AcDbLayout
  3
AutoCAD 2000
 90
0
280
0
281
0
  0
ENDSEC
  0
SECTION
  2
TABLES
  0
TABLE
  2
VPORT
  5
8
100
AcDbSymbolTable
 70
2
  0
VPORT
  5
1F4
100
AcDbSymbolTableRecord
100
AcDbViewportTableRecord
  2
*ACTIVE
 70
0
 10
0.0
 20
0.0
 11
1.0
 21
1.0
 12
105.0
 22
148.5
 13
0.0
 23
0.0
 14
1.0
 24
1.0
 15
0.0
 25
0.0
 16
0.0
 26
0.0
 36
1.0
 17
0.0
 27
0.0
 37
0.0
 40
297.0
 41
0.7070707071
 42
50.0
 43
0.0
 44
0.0
 50
0.0
 51
0.0
 71
0
 72
100
 73
1
 74
1
 75
0
 76
0
 77
0
 78
0
  0
ENDTAB
  0
TABLE
  2
LTYPE
  5
5
100
AcDbSymbolTable
 70
6
  0
LTYPE
  5
14
100
AcDbSymbolTableRecord
100
AcDbLinetypeTableRecord
  2
BYBLOCK
 70
0
  3

 72
65
 73
0
 40
0.0
  0
LTYPE
  5
15
100
AcDbSymbolTableRecord
100
AcDbLinetypeTableRecord
  2
BYLAYER
 70
0
  3

 72
65
 73
0
 40
0.0
  0
LTYPE
  5
16
100
AcDbSymbolTableRecord
100
AcDbLinetypeTableRecord
  2
CONTINUOUS
 70
64
  3
Solid line
 72
65
 73
0
 40
0.0
  0
LTYPE
  5
1F5
100
AcDbSymbolTableRecord
100
AcDbLinetypeTableRecord
  2
CENTER
 70
64
  3
____ _ ____ _ ____ _ ____ _ ____ _ ____ _ ____
 72
65
 73
4
 40
0.6
 49
0.375
 74
0
 49
-0.075
 74
0
 49
0.075
 74
0
 49
-0.075
 74
0
  0
LTYPE
  5
1F6
100
AcDbSymbolTableRecord
100
AcDbLinetypeTableRecord
  2
HIDDEN
 70
64
  3
- - - - - - - - - - - - - - - - - - - -
 72
65
 73
2
 40
0.2
 49
0.1
 74
0
 49
-0.1
 74
0
  0
LTYPE
  5
1F7
100
AcDbSymbolTableRecord
100
AcDbLinetypeTableRecord
  2
PHANTOM
 70
64
  3
_____ _ _ _____ _ _ _____ _ _ _____
 72
65
 73
6
 40
0.8
 49
0.45
 74
0
 49
-0.05
 74
0
 49
0.1
 74
0
 49
-0.05
 74
0
 49
0.1
 74
0
 49
-0.05
 74
0
  0
LTYPE
  5
1F8
100
AcDbSymbolTableRecord
100
AcDbLinetypeTableRecord
  2
DOT
 70
64
  3
. . . . . . . . . . . . . . . . . . . .
 72
65
 73
2
 40
0.2
 49
0.1
 74
0
 49
-0.1
 74
0
  0
LTYPE
  5
1F9
100
AcDbSymbolTableRecord
100
AcDbLinetypeTableRecord
  2
DASHED
 70
64
  3
- - - - - - - - - - - - - - - - - - - -
 72
65
 73
2
 40
0.2
 49
0.1
 74
0
 49
-0.1
 74
0
  0
ENDTAB
  0
TABLE
  2
LAYER
  5
2
100
AcDbSymbolTable
 70
36
  0
LAYER
  5
10
100
AcDbSymbolTableRecord
100
AcDbLayerTableRecord
  2
0
 70
0
 62
7
  6
CONTINUOUS
370
-3
390
F
  0
LAYER
  5
1FA
100
AcDbSymbolTableRecord
100
AcDbLayerTableRecord
  2
DEFAULT_1
 70
0
 62
7
  6
CENTER
370
-3
390
F
  0
LAYER
  5
1FB
100
AcDbSymbolTableRecord
100
AcDbLayerTableRecord
  2
DEFAULT_2
 70
0
 62
8
  6
HIDDEN
370
-3
390
F
  0
LAYER
  5
1FC
100
AcDbSymbolTableRecord
100
AcDbLayerTableRecord
  2
DEFAULT_3
 70
0
 62
7
  6
PHANTOM
370
-3
390
F
  0
LAYER
  5
1FD
100
AcDbSymbolTableRecord
100
AcDbLayerTableRecord
  2
S-EBENEN
 70
0
 62
7
  6
CONTINUOUS
370
-3
390
F
  0
LAYER
  5
1FE
100
AcDbSymbolTableRecord
100
AcDbLayerTableRecord
  2
S-KOORDINATENSYSTEM
 70
0
 62
7
  6
CONTINUOUS
370
-3
390
F
  0
LAYER
  5
1FF
100
AcDbSymbolTableRecord
100
AcDbLayerTableRecord
  2
_ACHSEN
 70
0
 62
7
  6
CONTINUOUS
370
-3
390
F
  0
LAYER
  5
200
100
AcDbSymbolTableRecord
100
AcDbLayerTableRecord
  2
_EBENEN
 70
0
 62
7
  6
CONTINUOUS
370
-3
390
F
  0
LAYER
  5
201
100
AcDbSymbolTableRecord
100
AcDbLayerTableRecord
  2
_FLAECHEN
 70
0
 62
7
  6
CONTINUOUS
370
-3
390
F
  0
LAYER
  5
202
100
AcDbSymbolTableRecord
100
AcDbLayerTableRecord
  2
_GEWINDE
 70
0
 62
7
  6
CONTINUOUS
370
-3
390
F
  0
LAYER
  5
203
100
AcDbSymbolTableRecord
100
AcDbLayerTableRecord
  2
_KOORD_SYS
 70
0
 62
7
  6
CONTINUOUS
370
-3
390
F
  0
LAYER
  5
204
100
AcDbSymbolTableRecord
100
AcDbLayerTableRecord
  2
_KOPIE_GEOM
 70
0
 62
7
  6
CONTINUOUS
370
-3
390
F
  0
LAYER
  5
205
100
AcDbSymbolTableRecord
100
AcDbLayerTableRecord
  2
_KOSMETIK
 70
0
 62
7
  6
CONTINUOUS
370
-3
390
F
  0
LAYER
  5
206
100
AcDbSymbolTableRecord
100
AcDbLayerTableRecord
  2
_KURVEN
 70
0
 62
7
  6
CONTINUOUS
370
-3
390
F
  0
LAYER
  5
207
100
AcDbSymbolTableRecord
100
AcDbLayerTableRecord
  2
_NOTIZEN
 70
0
 62
7
  6
CONTINUOUS
370
-3
390
F
  0
LAYER
  5
208
100
AcDbSymbolTableRecord
100
AcDbLayerTableRecord
  2
_PUNKTE
 70
0
 62
7
  6
CONTINUOUS
370
-3
390
F
  0
LAYER
  5
209
100
AcDbSymbolTableRecord
100
AcDbLayerTableRecord
  2
_SAMMELFLAECHEN
 70
0
 62
7
  6
CONTINUOUS
370
-3
390
F
  0
LAYER
  5
20A
100
AcDbSymbolTableRecord
100
AcDbLayerTableRecord
  2
_SYMBOLE
 70
0
 62
7
  6
CONTINUOUS
370
-3
390
F
  0
LAYER
  5
20B
100
AcDbSymbolTableRecord
100
AcDbLayerTableRecord
  2
_TOLERANZEN
 70
0
 62
7
  6
CONTINUOUS
370
-3
390
F
  0
LAYER
  5
20C
100
AcDbSymbolTableRecord
100
AcDbLayerTableRecord
  2
_ZEICH_ELEMENTE
 70
0
 62
7
  6
CONTINUOUS
370
-3
390
F
  0
ENDTAB
  0
TABLE
  2
STYLE
  5
3
100
AcDbSymbolTable
 70
1
  0
STYLE
  5
11
100
AcDbSymbolTableRecord
100
AcDbTextStyleTableRecord
  2
STANDARD
 70
0
 40
0.0
 41
0.8
 50
0.0
 71
0
 42
0.2
  3
txt
  4

  0
STYLE
  5
20D
100
AcDbSymbolTableRecord
100
AcDbTextStyleTableRecord
  2
TEXTSTYLE_1
 70
0
 40
0.0
 41
0.8
 50
0.0
 71
0
 42
0.2
  3
gdt
  4

  0
ENDTAB
  0
TABLE
  2
VIEW
  5
6
100
AcDbSymbolTable
 70
0
  0
ENDTAB
  0
TABLE
  2
UCS
  5
7
100
AcDbSymbolTable
 70
0
  0
ENDTAB
  0
TABLE
  2
APPID
  5
9
100
AcDbSymbolTable
 70
1
  0
APPID
  5
20E
100
AcDbSymbolTableRecord
100
AcDbRegAppTableRecord
  2
ACAD
 70
0
  0
ENDTAB
  0
TABLE
  2
BLOCK_RECORD
  5
1
100
AcDbSymbolTable
 70
0
  0
BLOCK_RECORD
  5
20F
100
AcDbSymbolTableRecord
100
AcDbBlockTableRecord
  2
*Model_Space
  0
BLOCK_RECORD
  5
210
100
AcDbSymbolTableRecord
100
AcDbBlockTableRecord
  2
*Paper_Space
  0
BLOCK_RECORD
  5
211
100
AcDbSymbolTableRecord
100
AcDbBlockTableRecord
  2
_FILLED
  0
ENDTAB
  0
TABLE
  2
DIMSTYLE
  5
A
100
AcDbSymbolTable
 70
1
100
AcDbDimStyleTable
 71
0
  0
DIMSTYLE
105
212
100
AcDbSymbolTableRecord
100
AcDbDimStyleTableRecord
  2
STANDARD
 70
0
  3

  4

 40
1.0
 41
3.5
 42
0.0
 43
0.38
 44
1.0
 45
0.0
 46
0.0
 47
0.001
 48
0.001
140
3.5
141
0.09
142
0.0
143
25.4
144
1.0
145
0.0
146
1.0
147
0.625
 71
1
 72
0
 73
0
 74
0
 75
0
 76
0
 77
1
 78
8
 79
2
170
0
171
2
172
0
173
0
174
0
175
0
176
0
177
0
178
0
270
2
179
3
271
3
272
3
273
2
274
2
275
0
280
0
281
0
282
0
283
1
284
8
285
0
286
0
287
3
288
0
340
11
278
46
341
211
342
211
343
211
344
211
  0
ENDTAB
  0
ENDSEC
  0
SECTION
  2
BLOCKS
  0
BLOCK
  5
20
100
AcDbEntity
  8
0
100
AcDbBlockBegin
  2
*Model_Space
 70
0
 10
0.0
 20
0.0
 30
0.0
  3
*Model_Space
  1

  0
ENDBLK
  5
21
100
AcDbEntity
  8
0
100
AcDbBlockEnd
  0
BLOCK
  5
1C
100
AcDbEntity
  8
0
100
AcDbBlockBegin
  2
*Paper_Space
 70
0
 10
0.0
 20
0.0
 30
0.0
  3
*Paper_Space
  1

  0
ENDBLK
  5
1D
100
AcDbEntity
  8
0
100
AcDbBlockEnd
  0
BLOCK
  5
213
100
AcDbEntity
  8
0
100
AcDbBlockBegin
  2
_FILLED
 70
64
 10
0.0
 20
0.0
  3
_FILLED
  1

  0
SOLID
  5
214
100
AcDbEntity
  8
0
  6
BYBLOCK
 62
0
100
AcDbTrace
 10
0.0
 20
0.0
 11
-1.0
 21
0.1285714286
 12
-1.0
 22
-0.1285714286
 13
-1.0
 23
-0.1285714286
  0
ENDBLK
  5
215
100
AcDbEntity
  8
0
  6
BYBLOCK
 62
0
100
AcDbBlockEnd
  0
ENDSEC
  0
SECTION
  2
ENTITIES
  0
LINE
  5
216
100
AcDbEntity
  8
0
100
AcDbLine
 62
7
  6
CONTINUOUS
 10
-68.9105087096
 20
232.2287549422
 11
-53.8394408977
 21
217.1576871303
  0
LINE
  5
217
100
AcDbEntity
  8
0
100
AcDbLine
 62
7
  6
CONTINUOUS
 10
-53.8394408977
 20
217.1576871303
 11
108.1605591023
 21
217.1576871303
  0
LINE
  5
218
100
AcDbEntity
  8
0
100
AcDbLine
 62
7
  6
CONTINUOUS
 10
116.1605591023
 20
235.1576871303
 11
-61.8394408977
 21
235.1576871303
  0
LINE
  5
219
100
AcDbEntity
  8
0
100
AcDbLine
 62
7
  6
CONTINUOUS
 10
108.1605591023
 20
217.1576871303
 11
123.2316269142
 21
232.2287549422
  0
LINE
  5
21A
100
AcDbEntity
  8
0
100
AcDbLine
 62
7
  6
CONTINUOUS
 10
-69.5148589274
 20
209.7021976404
 11
-54.4437911155
 21
194.6311298286
  0
LINE
  5
21B
100
AcDbEntity
  8
0
100
AcDbLine
 62
7
  6
CONTINUOUS
 10
-54.4437911155
 20
194.6311298286
 11
107.5562088845
 21
194.6311298286
  0
LINE
  5
21C
100
AcDbEntity
  8
0
100
AcDbLine
 62
7
  6
CONTINUOUS
 10
115.5562088845
 20
212.6311298286
 11
-62.4437911155
 21
212.6311298286
  0
LINE
  5
21D
100
AcDbEntity
  8
0
100
AcDbLine
 62
7
  6
CONTINUOUS
 10
107.5562088845
 20
194.6311298286
 11
122.6272766964
 21
209.7021976404
  0
LINE
  5
21E
100
AcDbEntity
  8
0
100
AcDbLine
 62
7
  6
CONTINUOUS
 10
-69.1803395035
 20
182.7098139318
 11
-54.1092716916
 21
167.6387461199
  0
LINE
  5
21F
100
AcDbEntity
  8
0
100
AcDbLine
 62
7
  6
CONTINUOUS
 10
-54.1092716916
 20
167.6387461199
 11
267.8907283084
 21
167.6387461199
  0
LINE
  5
220
100
AcDbEntity
  8
0
100
AcDbLine
 62
7
  6
CONTINUOUS
 10
275.8907283084
 20
185.6387461199
 11
-62.1092716916
 21
185.6387461199
  0
LINE
  5
221
100
AcDbEntity
  8
0
100
AcDbLine
 62
7
  6
CONTINUOUS
 10
267.8907283084
 20
167.6387461199
 11
282.9617961202
 21
182.7098139318
  0
LINE
  5
222
100
AcDbEntity
  8
0
100
AcDbLine
 62
7
  6
CONTINUOUS
 10
-69.5679869984
 20
157.7721742534
 11
-54.4969191865
 21
142.7011064416
  0
LINE
  5
223
100
AcDbEntity
  8
0
100
AcDbLine
 62
7
  6
CONTINUOUS
 10
-54.4969191865
 20
142.7011064416
 11
267.5030808135
 21
142.7011064416
  0
LINE
  5
224
100
AcDbEntity
  8
0
100
AcDbLine
 62
7
  6
CONTINUOUS
 10
275.5030808135
 20
160.7011064416
 11
-62.4969191865
 21
160.7011064416
  0
LINE
  5
225
100
AcDbEntity
  8
0
100
AcDbLine
 62
7
  6
CONTINUOUS
 10
267.5030808135
 20
142.7011064416
 11
282.5741486253
 21
157.7721742534
  0
LINE
  5
226
100
AcDbEntity
  8
0
100
AcDbLine
 62
7
  6
CONTINUOUS
 10
-70.1655466221
 20
135.8196401664
 11
-70.1655466221
 21
80.8196401664
  0
LINE
  5
227
100
AcDbEntity
  8
0
100
AcDbLine
 62
7
  6
CONTINUOUS
 10
-57.2655466221
 20
126.8196401664
 11
-57.2655466221
 21
131.0196401664
  0
LINE
  5
228
100
AcDbEntity
  8
0
100
AcDbLine
 62
7
  6
CONTINUOUS
 10
-55.0655466221
 20
126.8196401664
 11
-55.0655466221
 21
131.0196401664
  0
LINE
  5
229
100
AcDbEntity
  8
0
100
AcDbLine
 62
7
  6
CONTINUOUS
 10
-47.2655466221
 20
126.8196401664
 11
-47.2655466221
 21
131.0196401664
  0
LINE
  5
22A
100
AcDbEntity
  8
0
100
AcDbLine
 62
7
  6
CONTINUOUS
 10
-45.0655466221
 20
126.8196401664
 11
-45.0655466221
 21
131.0196401664
  0
LINE
  5
22B
100
AcDbEntity
  8
0
100
AcDbLine
 62
7
  6
CONTINUOUS
 10
-37.2655466221
 20
126.8196401664
 11
-37.2655466221
 21
131.0196401664
  0
LINE
  5
22C
100
AcDbEntity
  8
0
100
AcDbLine
 62
7
  6
CONTINUOUS
 10
-35.0655466221
 20
126.8196401664
 11
-35.0655466221
 21
131.0196401664
  0
LINE
  5
22D
100
AcDbEntity
  8
0
100
AcDbLine
 62
7
  6
CONTINUOUS
 10
-27.2655466221
 20
126.8196401664
 11
-27.2655466221
 21
131.0196401664
  0
LINE
  5
22E
100
AcDbEntity
  8
0
100
AcDbLine
 62
7
  6
CONTINUOUS
 10
-25.0655466221
 20
126.8196401664
 11
-25.0655466221
 21
131.0196401664
  0
LINE
  5
22F
100
AcDbEntity
  8
0
100
AcDbLine
 62
7
  6
CONTINUOUS
 10
-17.2655466221
 20
126.8196401664
 11
-17.2655466221
 21
131.0196401664
  0
LINE
  5
230
100
AcDbEntity
  8
0
100
AcDbLine
 62
7
  6
CONTINUOUS
 10
-15.0655466221
 20
126.8196401664
 11
-15.0655466221
 21
131.0196401664
  0
LINE
  5
231
100
AcDbEntity
  8
0
100
AcDbLine
 62
7
  6
CONTINUOUS
 10
-7.2655466221
 20
126.8196401664
 11
-7.2655466221
 21
131.0196401664
  0
LINE
  5
232
100
AcDbEntity
  8
0
100
AcDbLine
 62
7
  6
CONTINUOUS
 10
-5.0655466221
 20
126.8196401664
 11
-5.0655466221
 21
131.0196401664
  0
LINE
  5
233
100
AcDbEntity
  8
0
100
AcDbLine
 62
7
  6
CONTINUOUS
 10
2.7344533779
 20
126.8196401664
 11
2.7344533779
 21
131.0196401664
  0
LINE
  5
234
100
AcDbEntity
  8
0
100
AcDbLine
 62
7
  6
CONTINUOUS
 10
4.9344533779
 20
126.8196401664
 11
4.9344533779
 21
131.0196401664
  0
LINE
  5
235
100
AcDbEntity
  8
0
100
AcDbLine
 62
7
  6
CONTINUOUS
 10
12.7344533779
 20
126.8196401664
 11
12.7344533779
 21
131.0196401664
  0
LINE
  5
236
100
AcDbEntity
  8
0
100
AcDbLine
 62
7
  6
CONTINUOUS
 10
14.9344533779
 20
126.8196401664
 11
14.9344533779
 21
131.0196401664
  0
LINE
  5
237
100
AcDbEntity
  8
0
100
AcDbLine
 62
7
  6
CONTINUOUS
 10
22.7344533779
 20
126.8196401664
 11
22.7344533779
 21
131.0196401664
  0
LINE
  5
238
100
AcDbEntity
  8
0
100
AcDbLine
 62
7
  6
CONTINUOUS
 10
24.9344533779
 20
126.8196401664
 11
24.9344533779
 21
131.0196401664
  0
LINE
  5
239
100
AcDbEntity
  8
0
100
AcDbLine
 62
7
  6
CONTINUOUS
 10
32.7344533779
 20
126.8196401664
 11
32.7344533779
 21
131.0196401664
  0
LINE
  5
23A
100
AcDbEntity
  8
0
100
AcDbLine
 62
7
  6
CONTINUOUS
 10
34.9344533779
 20
126.8196401664
 11
34.9344533779
 21
131.0196401664
  0
LINE
  5
23B
100
AcDbEntity
  8
0
100
AcDbLine
 62
7
  6
CONTINUOUS
 10
42.7344533779
 20
126.8196401664
 11
42.7344533779
 21
131.0196401664
  0
LINE
  5
23C
100
AcDbEntity
  8
0
100
AcDbLine
 62
7
  6
CONTINUOUS
 10
44.9344533779
 20
126.8196401664
 11
44.9344533779
 21
131.0196401664
  0
LINE
  5
23D
100
AcDbEntity
  8
0
100
AcDbLine
 62
7
  6
CONTINUOUS
 10
52.7344533779
 20
126.8196401664
 11
52.7344533779
 21
131.0196401664
  0
LINE
  5
23E
100
AcDbEntity
  8
0
100
AcDbLine
 62
7
  6
CONTINUOUS
 10
54.9344533779
 20
126.8196401664
 11
54.9344533779
 21
131.0196401664
  0
LINE
  5
23F
100
AcDbEntity
  8
0
100
AcDbLine
 62
7
  6
CONTINUOUS
 10
62.7344533779
 20
126.8196401664
 11
62.7344533779
 21
131.0196401664
  0
LINE
  5
240
100
AcDbEntity
  8
0
100
AcDbLine
 62
7
  6
CONTINUOUS
 10
64.9344533779
 20
126.8196401664
 11
64.9344533779
 21
131.0196401664
  0
LINE
  5
241
100
AcDbEntity
  8
0
100
AcDbLine
 62
7
  6
CONTINUOUS
 10
72.7344533779
 20
126.8196401664
 11
72.7344533779
 21
131.0196401664
  0
LINE
  5
242
100
AcDbEntity
  8
0
100
AcDbLine
 62
7
  6
CONTINUOUS
 10
-70.1655466221
 20
80.8196401664
 11
257.8344533779
 21
80.8196401664
  0
LINE
  5
243
100
AcDbEntity
  8
0
100
AcDbLine
 62
7
  6
CONTINUOUS
 10
74.9344533779
 20
126.8196401664
 11
74.9344533779
 21
131.0196401664
  0
LINE
  5
244
100
AcDbEntity
  8
0
100
AcDbLine
 62
7
  6
CONTINUOUS
 10
82.7344533779
 20
126.8196401664
 11
82.7344533779
 21
131.0196401664
  0
LINE
  5
245
100
AcDbEntity
  8
0
100
AcDbLine
 62
7
  6
CONTINUOUS
 10
84.9344533779
 20
126.8196401664
 11
84.9344533779
 21
131.0196401664
  0
LINE
  5
246
100
AcDbEntity
  8
0
100
AcDbLine
 62
7
  6
CONTINUOUS
 10
92.7344533779
 20
126.8196401664
 11
92.7344533779
 21
131.0196401664
  0
LINE
  5
247
100
AcDbEntity
  8
0
100
AcDbLine
 62
7
  6
CONTINUOUS
 10
94.9344533779
 20
126.8196401664
 11
94.9344533779
 21
131.0196401664
  0
LINE
  5
248
100
AcDbEntity
  8
0
100
AcDbLine
 62
7
  6
CONTINUOUS
 10
102.7344533779
 20
126.8196401664
 11
102.7344533779
 21
131.0196401664
  0
LINE
  5
249
100
AcDbEntity
  8
0
100
AcDbLine
 62
7
  6
CONTINUOUS
 10
104.9344533779
 20
126.8196401664
 11
104.9344533779
 21
131.0196401664
  0
LINE
  5
24A
100
AcDbEntity
  8
0
100
AcDbLine
 62
7
  6
CONTINUOUS
 10
112.7344533779
 20
126.8196401664
 11
112.7344533779
 21
131.0196401664
  0
LINE
  5
24B
100
AcDbEntity
  8
0
100
AcDbLine
 62
7
  6
CONTINUOUS
 10
114.9344533779
 20
126.8196401664
 11
114.9344533779
 21
131.0196401664
  0
LINE
  5
24C
100
AcDbEntity
  8
0
100
AcDbLine
 62
7
  6
CONTINUOUS
 10
-57.2655466221
 20
126.8196401664
 11
-55.0655466221
 21
126.8196401664
  0
LINE
  5
24D
100
AcDbEntity
  8
0
100
AcDbLine
 62
7
  6
CONTINUOUS
 10
-47.2655466221
 20
126.8196401664
 11
-45.0655466221
 21
126.8196401664
  0
LINE
  5
24E
100
AcDbEntity
  8
0
100
AcDbLine
 62
7
  6
CONTINUOUS
 10
-37.2655466221
 20
126.8196401664
 11
-35.0655466221
 21
126.8196401664
  0
LINE
  5
24F
100
AcDbEntity
  8
0
100
AcDbLine
 62
7
  6
CONTINUOUS
 10
-27.2655466221
 20
126.8196401664
 11
-25.0655466221
 21
126.8196401664
  0
LINE
  5
250
100
AcDbEntity
  8
0
100
AcDbLine
 62
7
  6
CONTINUOUS
 10
-17.2655466221
 20
126.8196401664
 11
-15.0655466221
 21
126.8196401664
  0
LINE
  5
251
100
AcDbEntity
  8
0
100
AcDbLine
 62
7
  6
CONTINUOUS
 10
-7.2655466221
 20
126.8196401664
 11
-5.0655466221
 21
126.8196401664
  0
LINE
  5
252
100
AcDbEntity
  8
0
100
AcDbLine
 62
7
  6
CONTINUOUS
 10
2.7344533779
 20
126.8196401664
 11
4.9344533779
 21
126.8196401664
  0
LINE
  5
253
100
AcDbEntity
  8
0
100
AcDbLine
 62
7
  6
CONTINUOUS
 10
12.7344533779
 20
126.8196401664
 11
14.9344533779
 21
126.8196401664
  0
LINE
  5
254
100
AcDbEntity
  8
0
100
AcDbLine
 62
7
  6
CONTINUOUS
 10
22.7344533779
 20
126.8196401664
 11
24.9344533779
 21
126.8196401664
  0
LINE
  5
255
100
AcDbEntity
  8
0
100
AcDbLine
 62
7
  6
CONTINUOUS
 10
32.7344533779
 20
126.8196401664
 11
34.9344533779
 21
126.8196401664
  0
LINE
  5
256
100
AcDbEntity
  8
0
100
AcDbLine
 62
7
  6
CONTINUOUS
 10
42.7344533779
 20
126.8196401664
 11
44.9344533779
 21
126.8196401664
  0
LINE
  5
257
100
AcDbEntity
  8
0
100
AcDbLine
 62
7
  6
CONTINUOUS
 10
52.7344533779
 20
126.8196401664
 11
54.9344533779
 21
126.8196401664
  0
LINE
  5
258
100
AcDbEntity
  8
0
100
AcDbLine
 62
7
  6
CONTINUOUS
 10
62.7344533779
 20
126.8196401664
 11
64.9344533779
 21
126.8196401664
  0
LINE
  5
259
100
AcDbEntity
  8
0
100
AcDbLine
 62
7
  6
CONTINUOUS
 10
72.7344533779
 20
126.8196401664
 11
74.9344533779
 21
126.8196401664
  0
LINE
  5
25A
100
AcDbEntity
  8
0
100
AcDbLine
 62
7
  6
CONTINUOUS
 10
82.7344533779
 20
126.8196401664
 11
84.9344533779
 21
126.8196401664
  0
LINE
  5
25B
100
AcDbEntity
  8
0
100
AcDbLine
 62
7
  6
CONTINUOUS
 10
92.7344533779
 20
126.8196401664
 11
94.9344533779
 21
126.8196401664
  0
LINE
  5
25C
100
AcDbEntity
  8
0
100
AcDbLine
 62
7
  6
CONTINUOUS
 10
102.7344533779
 20
126.8196401664
 11
104.9344533779
 21
126.8196401664
  0
LINE
  5
25D
100
AcDbEntity
  8
0
100
AcDbLine
 62
7
  6
CONTINUOUS
 10
112.7344533779
 20
126.8196401664
 11
114.9344533779
 21
126.8196401664
  0
LINE
  5
25E
100
AcDbEntity
  8
0
100
AcDbLine
 62
7
  6
CONTINUOUS
 10
122.7344533779
 20
126.8196401664
 11
124.9344533779
 21
126.8196401664
  0
LINE
  5
25F
100
AcDbEntity
  8
0
100
AcDbLine
 62
7
  6
CONTINUOUS
 10
132.7344533779
 20
126.8196401664
 11
134.9344533779
 21
126.8196401664
  0
LINE
  5
260
100
AcDbEntity
  8
0
100
AcDbLine
 62
7
  6
CONTINUOUS
 10
142.7344533779
 20
126.8196401664
 11
144.9344533779
 21
126.8196401664
  0
LINE
  5
261
100
AcDbEntity
  8
0
100
AcDbLine
 62
7
  6
CONTINUOUS
 10
152.7344533779
 20
126.8196401664
 11
154.9344533779
 21
126.8196401664
  0
LINE
  5
262
100
AcDbEntity
  8
0
100
AcDbLine
 62
7
  6
CONTINUOUS
 10
162.7344533779
 20
126.8196401664
 11
164.9344533779
 21
126.8196401664
  0
LINE
  5
263
100
AcDbEntity
  8
0
100
AcDbLine
 62
7
  6
CONTINUOUS
 10
172.7344533779
 20
126.8196401664
 11
174.9344533779
 21
126.8196401664
  0
LINE
  5
264
100
AcDbEntity
  8
0
100
AcDbLine
 62
7
  6
CONTINUOUS
 10
182.7344533779
 20
126.8196401664
 11
184.9344533779
 21
126.8196401664
  0
LINE
  5
265
100
AcDbEntity
  8
0
100
AcDbLine
 62
7
  6
CONTINUOUS
 10
192.7344533779
 20
126.8196401664
 11
194.9344533779
 21
126.8196401664
  0
LINE
  5
266
100
AcDbEntity
  8
0
100
AcDbLine
 62
7
  6
CONTINUOUS
 10
202.7344533779
 20
126.8196401664
 11
204.9344533779
 21
126.8196401664
  0
LINE
  5
267
100
AcDbEntity
  8
0
100
AcDbLine
 62
7
  6
CONTINUOUS
 10
212.7344533779
 20
126.8196401664
 11
214.9344533779
 21
126.8196401664
  0
LINE
  5
268
100
AcDbEntity
  8
0
100
AcDbLine
 62
7
  6
CONTINUOUS
 10
222.7344533779
 20
126.8196401664
 11
224.9344533779
 21
126.8196401664
  0
LINE
  5
269
100
AcDbEntity
  8
0
100
AcDbLine
 62
7
  6
CONTINUOUS
 10
232.7344533779
 20
126.8196401664
 11
234.9344533779
 21
126.8196401664
  0
LINE
  5
26A
100
AcDbEntity
  8
0
100
AcDbLine
 62
7
  6
CONTINUOUS
 10
242.7344533779
 20
126.8196401664
 11
244.9344533779
 21
126.8196401664
  0
LINE
  5
26B
100
AcDbEntity
  8
0
100
AcDbLine
 62
7
  6
CONTINUOUS
 10
-57.2655466221
 20
131.0196401664
 11
-55.0655466221
 21
131.0196401664
  0
LINE
  5
26C
100
AcDbEntity
  8
0
100
AcDbLine
 62
7
  6
CONTINUOUS
 10
-47.2655466221
 20
131.0196401664
 11
-45.0655466221
 21
131.0196401664
  0
LINE
  5
26D
100
AcDbEntity
  8
0
100
AcDbLine
 62
7
  6
CONTINUOUS
 10
-37.2655466221
 20
131.0196401664
 11
-35.0655466221
 21
131.0196401664
  0
LINE
  5
26E
100
AcDbEntity
  8
0
100
AcDbLine
 62
7
  6
CONTINUOUS
 10
-27.2655466221
 20
131.0196401664
 11
-25.0655466221
 21
131.0196401664
  0
LINE
  5
26F
100
AcDbEntity
  8
0
100
AcDbLine
 62
7
  6
CONTINUOUS
 10
-17.2655466221
 20
131.0196401664
 11
-15.0655466221
 21
131.0196401664
  0
LINE
  5
270
100
AcDbEntity
  8
0
100
AcDbLine
 62
7
  6
CONTINUOUS
 10
-7.2655466221
 20
131.0196401664
 11
-5.0655466221
 21
131.0196401664
  0
LINE
  5
271
100
AcDbEntity
  8
0
100
AcDbLine
 62
7
  6
CONTINUOUS
 10
2.7344533779
 20
131.0196401664
 11
4.9344533779
 21
131.0196401664
  0
LINE
  5
272
100
AcDbEntity
  8
0
100
AcDbLine
 62
7
  6
CONTINUOUS
 10
12.7344533779
 20
131.0196401664
 11
14.9344533779
 21
131.0196401664
  0
LINE
  5
273
100
AcDbEntity
  8
0
100
AcDbLine
 62
7
  6
CONTINUOUS
 10
22.7344533779
 20
131.0196401664
 11
24.9344533779
 21
131.0196401664
  0
LINE
  5
274
100
AcDbEntity
  8
0
100
AcDbLine
 62
7
  6
CONTINUOUS
 10
32.7344533779
 20
131.0196401664
 11
34.9344533779
 21
131.0196401664
  0
LINE
  5
275
100
AcDbEntity
  8
0
100
AcDbLine
 62
7
  6
CONTINUOUS
 10
42.7344533779
 20
131.0196401664
 11
44.9344533779
 21
131.0196401664
  0
LINE
  5
276
100
AcDbEntity
  8
0
100
AcDbLine
 62
7
  6
CONTINUOUS
 10
52.7344533779
 20
131.0196401664
 11
54.9344533779
 21
131.0196401664
  0
LINE
  5
277
100
AcDbEntity
  8
0
100
AcDbLine
 62
7
  6
CONTINUOUS
 10
62.7344533779
 20
131.0196401664
 11
64.9344533779
 21
131.0196401664
  0
LINE
  5
278
100
AcDbEntity
  8
0
100
AcDbLine
 62
7
  6
CONTINUOUS
 10
72.7344533779
 20
131.0196401664
 11
74.9344533779
 21
131.0196401664
  0
LINE
  5
279
100
AcDbEntity
  8
0
100
AcDbLine
 62
7
  6
CONTINUOUS
 10
82.7344533779
 20
131.0196401664
 11
84.9344533779
 21
131.0196401664
  0
LINE
  5
27A
100
AcDbEntity
  8
0
100
AcDbLine
 62
7
  6
CONTINUOUS
 10
92.7344533779
 20
131.0196401664
 11
94.9344533779
 21
131.0196401664
  0
LINE
  5
27B
100
AcDbEntity
  8
0
100
AcDbLine
 62
7
  6
CONTINUOUS
 10
102.7344533779
 20
131.0196401664
 11
104.9344533779
 21
131.0196401664
  0
LINE
  5
27C
100
AcDbEntity
  8
0
100
AcDbLine
 62
7
  6
CONTINUOUS
 10
112.7344533779
 20
131.0196401664
 11
114.9344533779
 21
131.0196401664
  0
LINE
  5
27D
100
AcDbEntity
  8
0
100
AcDbLine
 62
7
  6
CONTINUOUS
 10
122.7344533779
 20
131.0196401664
 11
124.9344533779
 21
131.0196401664
  0
LINE
  5
27E
100
AcDbEntity
  8
0
100
AcDbLine
 62
7
  6
CONTINUOUS
 10
132.7344533779
 20
131.0196401664
 11
134.9344533779
 21
131.0196401664
  0
LINE
  5
27F
100
AcDbEntity
  8
0
100
AcDbLine
 62
7
  6
CONTINUOUS
 10
142.7344533779
 20
131.0196401664
 11
144.9344533779
 21
131.0196401664
  0
LINE
  5
280
100
AcDbEntity
  8
0
100
AcDbLine
 62
7
  6
CONTINUOUS
 10
152.7344533779
 20
131.0196401664
 11
154.9344533779
 21
131.0196401664
  0
LINE
  5
281
100
AcDbEntity
  8
0
100
AcDbLine
 62
7
  6
CONTINUOUS
 10
162.7344533779
 20
131.0196401664
 11
164.9344533779
 21
131.0196401664
  0
LINE
  5
282
100
AcDbEntity
  8
0
100
AcDbLine
 62
7
  6
CONTINUOUS
 10
172.7344533779
 20
131.0196401664
 11
174.9344533779
 21
131.0196401664
  0
LINE
  5
283
100
AcDbEntity
  8
0
100
AcDbLine
 62
7
  6
CONTINUOUS
 10
182.7344533779
 20
131.0196401664
 11
184.9344533779
 21
131.0196401664
  0
LINE
  5
284
100
AcDbEntity
  8
0
100
AcDbLine
 62
7
  6
CONTINUOUS
 10
192.7344533779
 20
131.0196401664
 11
194.9344533779
 21
131.0196401664
  0
LINE
  5
285
100
AcDbEntity
  8
0
100
AcDbLine
 62
7
  6
CONTINUOUS
 10
202.7344533779
 20
131.0196401664
 11
204.9344533779
 21
131.0196401664
  0
LINE
  5
286
100
AcDbEntity
  8
0
100
AcDbLine
 62
7
  6
CONTINUOUS
 10
212.7344533779
 20
131.0196401664
 11
214.9344533779
 21
131.0196401664
  0
LINE
  5
287
100
AcDbEntity
  8
0
100
AcDbLine
 62
7
  6
CONTINUOUS
 10
222.7344533779
 20
131.0196401664
 11
224.9344533779
 21
131.0196401664
  0
LINE
  5
288
100
AcDbEntity
  8
0
100
AcDbLine
 62
7
  6
CONTINUOUS
 10
232.7344533779
 20
131.0196401664
 11
234.9344533779
 21
131.0196401664
  0
LINE
  5
289
100
AcDbEntity
  8
0
100
AcDbLine
 62
7
  6
CONTINUOUS
 10
242.7344533779
 20
131.0196401664
 11
244.9344533779
 21
131.0196401664
  0
LINE
  5
28A
100
AcDbEntity
  8
0
100
AcDbLine
 62
7
  6
CONTINUOUS
 10
122.7344533779
 20
126.8196401664
 11
122.7344533779
 21
131.0196401664
  0
LINE
  5
28B
100
AcDbEntity
  8
0
100
AcDbLine
 62
7
  6
CONTINUOUS
 10
124.9344533779
 20
126.8196401664
 11
124.9344533779
 21
131.0196401664
  0
LINE
  5
28C
100
AcDbEntity
  8
0
100
AcDbLine
 62
7
  6
CONTINUOUS
 10
257.8344533779
 20
135.8196401664
 11
-70.1655466221
 21
135.8196401664
  0
LINE
  5
28D
100
AcDbEntity
  8
0
100
AcDbLine
 62
7
  6
CONTINUOUS
 10
132.7344533779
 20
126.8196401664
 11
132.7344533779
 21
131.0196401664
  0
LINE
  5
28E
100
AcDbEntity
  8
0
100
AcDbLine
 62
7
  6
CONTINUOUS
 10
134.9344533779
 20
126.8196401664
 11
134.9344533779
 21
131.0196401664
  0
LINE
  5
28F
100
AcDbEntity
  8
0
100
AcDbLine
 62
7
  6
CONTINUOUS
 10
142.7344533779
 20
126.8196401664
 11
142.7344533779
 21
131.0196401664
  0
LINE
  5
290
100
AcDbEntity
  8
0
100
AcDbLine
 62
7
  6
CONTINUOUS
 10
144.9344533779
 20
126.8196401664
 11
144.9344533779
 21
131.0196401664
  0
LINE
  5
291
100
AcDbEntity
  8
0
100
AcDbLine
 62
7
  6
CONTINUOUS
 10
152.7344533779
 20
126.8196401664
 11
152.7344533779
 21
131.0196401664
  0
LINE
  5
292
100
AcDbEntity
  8
0
100
AcDbLine
 62
7
  6
CONTINUOUS
 10
154.9344533779
 20
126.8196401664
 11
154.9344533779
 21
131.0196401664
  0
LINE
  5
293
100
AcDbEntity
  8
0
100
AcDbLine
 62
7
  6
CONTINUOUS
 10
162.7344533779
 20
126.8196401664
 11
162.7344533779
 21
131.0196401664
  0
LINE
  5
294
100
AcDbEntity
  8
0
100
AcDbLine
 62
7
  6
CONTINUOUS
 10
164.9344533779
 20
126.8196401664
 11
164.9344533779
 21
131.0196401664
  0
LINE
  5
295
100
AcDbEntity
  8
0
100
AcDbLine
 62
7
  6
CONTINUOUS
 10
172.7344533779
 20
126.8196401664
 11
172.7344533779
 21
131.0196401664
  0
LINE
  5
296
100
AcDbEntity
  8
0
100
AcDbLine
 62
7
  6
CONTINUOUS
 10
174.9344533779
 20
126.8196401664
 11
174.9344533779
 21
131.0196401664
  0
LINE
  5
297
100
AcDbEntity
  8
0
100
AcDbLine
 62
7
  6
CONTINUOUS
 10
182.7344533779
 20
126.8196401664
 11
182.7344533779
 21
131.0196401664
  0
LINE
  5
298
100
AcDbEntity
  8
0
100
AcDbLine
 62
7
  6
CONTINUOUS
 10
184.9344533779
 20
126.8196401664
 11
184.9344533779
 21
131.0196401664
  0
LINE
  5
299
100
AcDbEntity
  8
0
100
AcDbLine
 62
7
  6
CONTINUOUS
 10
192.7344533779
 20
126.8196401664
 11
192.7344533779
 21
131.0196401664
  0
LINE
  5
29A
100
AcDbEntity
  8
0
100
AcDbLine
 62
7
  6
CONTINUOUS
 10
194.9344533779
 20
126.8196401664
 11
194.9344533779
 21
131.0196401664
  0
LINE
  5
29B
100
AcDbEntity
  8
0
100
AcDbLine
 62
7
  6
CONTINUOUS
 10
202.7344533779
 20
126.8196401664
 11
202.7344533779
 21
131.0196401664
  0
LINE
  5
29C
100
AcDbEntity
  8
0
100
AcDbLine
 62
7
  6
CONTINUOUS
 10
204.9344533779
 20
126.8196401664
 11
204.9344533779
 21
131.0196401664
  0
LINE
  5
29D
100
AcDbEntity
  8
0
100
AcDbLine
 62
7
  6
CONTINUOUS
 10
212.7344533779
 20
126.8196401664
 11
212.7344533779
 21
131.0196401664
  0
LINE
  5
29E
100
AcDbEntity
  8
0
100
AcDbLine
 62
7
  6
CONTINUOUS
 10
214.9344533779
 20
126.8196401664
 11
214.9344533779
 21
131.0196401664
  0
LINE
  5
29F
100
AcDbEntity
  8
0
100
AcDbLine
 62
7
  6
CONTINUOUS
 10
222.7344533779
 20
126.8196401664
 11
222.7344533779
 21
131.0196401664
  0
LINE
  5
2A0
100
AcDbEntity
  8
0
100
AcDbLine
 62
7
  6
CONTINUOUS
 10
224.9344533779
 20
126.8196401664
 11
224.9344533779
 21
131.0196401664
  0
LINE
  5
2A1
100
AcDbEntity
  8
0
100
AcDbLine
 62
7
  6
CONTINUOUS
 10
232.7344533779
 20
126.8196401664
 11
232.7344533779
 21
131.0196401664
  0
LINE
  5
2A2
100
AcDbEntity
  8
0
100
AcDbLine
 62
7
  6
CONTINUOUS
 10
234.9344533779
 20
126.8196401664
 11
234.9344533779
 21
131.0196401664
  0
LINE
  5
2A3
100
AcDbEntity
  8
0
100
AcDbLine
 62
7
  6
CONTINUOUS
 10
242.7344533779
 20
126.8196401664
 11
242.7344533779
 21
131.0196401664
  0
LINE
  5
2A4
100
AcDbEntity
  8
0
100
AcDbLine
 62
7
  6
CONTINUOUS
 10
244.9344533779
 20
126.8196401664
 11
244.9344533779
 21
131.0196401664
  0
LINE
  5
2A5
100
AcDbEntity
  8
0
100
AcDbLine
 62
7
  6
CONTINUOUS
 10
257.8344533779
 20
80.8196401664
 11
257.8344533779
 21
135.8196401664
  0
LINE
  5
2A6
100
AcDbEntity
  8
0
100
AcDbLine
 62
7
  6
CONTINUOUS
 10
-70.9517778251
 20
69.5854766326
 11
-70.9517778251
 21
14.5854766326
  0
LINE
  5
2A7
100
AcDbEntity
  8
0
100
AcDbLine
 62
7
  6
CONTINUOUS
 10
-58.0517778251
 20
23.5854766326
 11
-58.0517778251
 21
19.3854766326
  0
LINE
  5
2A8
100
AcDbEntity
  8
0
100
AcDbLine
 62
7
  6
CONTINUOUS
 10
-55.8517778251
 20
23.5854766326
 11
-55.8517778251
 21
19.3854766326
  0
LINE
  5
2A9
100
AcDbEntity
  8
0
100
AcDbLine
 62
7
  6
CONTINUOUS
 10
-48.0517778251
 20
23.5854766326
 11
-48.0517778251
 21
19.3854766326
  0
LINE
  5
2AA
100
AcDbEntity
  8
0
100
AcDbLine
 62
7
  6
CONTINUOUS
 10
-45.8517778251
 20
23.5854766326
 11
-45.8517778251
 21
19.3854766326
  0
LINE
  5
2AB
100
AcDbEntity
  8
0
100
AcDbLine
 62
7
  6
CONTINUOUS
 10
-38.0517778251
 20
23.5854766326
 11
-38.0517778251
 21
19.3854766326
  0
LINE
  5
2AC
100
AcDbEntity
  8
0
100
AcDbLine
 62
7
  6
CONTINUOUS
 10
-35.8517778251
 20
23.5854766326
 11
-35.8517778251
 21
19.3854766326
  0
LINE
  5
2AD
100
AcDbEntity
  8
0
100
AcDbLine
 62
7
  6
CONTINUOUS
 10
-28.0517778251
 20
23.5854766326
 11
-28.0517778251
 21
19.3854766326
  0
LINE
  5
2AE
100
AcDbEntity
  8
0
100
AcDbLine
 62
7
  6
CONTINUOUS
 10
-25.8517778251
 20
23.5854766326
 11
-25.8517778251
 21
19.3854766326
  0
LINE
  5
2AF
100
AcDbEntity
  8
0
100
AcDbLine
 62
7
  6
CONTINUOUS
 10
-18.0517778251
 20
23.5854766326
 11
-18.0517778251
 21
19.3854766326
  0
LINE
  5
2B0
100
AcDbEntity
  8
0
100
AcDbLine
 62
7
  6
CONTINUOUS
 10
-15.8517778251
 20
23.5854766326
 11
-15.8517778251
 21
19.3854766326
  0
LINE
  5
2B1
100
AcDbEntity
  8
0
100
AcDbLine
 62
7
  6
CONTINUOUS
 10
-8.0517778251
 20
23.5854766326
 11
-8.0517778251
 21
19.3854766326
  0
LINE
  5
2B2
100
AcDbEntity
  8
0
100
AcDbLine
 62
7
  6
CONTINUOUS
 10
-5.8517778251
 20
23.5854766326
 11
-5.8517778251
 21
19.3854766326
  0
LINE
  5
2B3
100
AcDbEntity
  8
0
100
AcDbLine
 62
7
  6
CONTINUOUS
 10
1.9482221749
 20
23.5854766326
 11
1.9482221749
 21
19.3854766326
  0
LINE
  5
2B4
100
AcDbEntity
  8
0
100
AcDbLine
 62
7
  6
CONTINUOUS
 10
4.1482221749
 20
23.5854766326
 11
4.1482221749
 21
19.3854766326
  0
LINE
  5
2B5
100
AcDbEntity
  8
0
100
AcDbLine
 62
7
  6
CONTINUOUS
 10
11.9482221749
 20
23.5854766326
 11
11.9482221749
 21
19.3854766326
  0
LINE
  5
2B6
100
AcDbEntity
  8
0
100
AcDbLine
 62
7
  6
CONTINUOUS
 10
14.1482221749
 20
23.5854766326
 11
14.1482221749
 21
19.3854766326
  0
LINE
  5
2B7
100
AcDbEntity
  8
0
100
AcDbLine
 62
7
  6
CONTINUOUS
 10
21.9482221749
 20
23.5854766326
 11
21.9482221749
 21
19.3854766326
  0
LINE
  5
2B8
100
AcDbEntity
  8
0
100
AcDbLine
 62
7
  6
CONTINUOUS
 10
24.1482221749
 20
23.5854766326
 11
24.1482221749
 21
19.3854766326
  0
LINE
  5
2B9
100
AcDbEntity
  8
0
100
AcDbLine
 62
7
  6
CONTINUOUS
 10
31.9482221749
 20
23.5854766326
 11
31.9482221749
 21
19.3854766326
  0
LINE
  5
2BA
100
AcDbEntity
  8
0
100
AcDbLine
 62
7
  6
CONTINUOUS
 10
34.1482221749
 20
23.5854766326
 11
34.1482221749
 21
19.3854766326
  0
LINE
  5
2BB
100
AcDbEntity
  8
0
100
AcDbLine
 62
7
  6
CONTINUOUS
 10
41.9482221749
 20
23.5854766326
 11
41.9482221749
 21
19.3854766326
  0
LINE
  5
2BC
100
AcDbEntity
  8
0
100
AcDbLine
 62
7
  6
CONTINUOUS
 10
44.1482221749
 20
23.5854766326
 11
44.1482221749
 21
19.3854766326
  0
LINE
  5
2BD
100
AcDbEntity
  8
0
100
AcDbLine
 62
7
  6
CONTINUOUS
 10
51.9482221749
 20
23.5854766326
 11
51.9482221749
 21
19.3854766326
  0
LINE
  5
2BE
100
AcDbEntity
  8
0
100
AcDbLine
 62
7
  6
CONTINUOUS
 10
54.1482221749
 20
23.5854766326
 11
54.1482221749
 21
19.3854766326
  0
LINE
  5
2BF
100
AcDbEntity
  8
0
100
AcDbLine
 62
7
  6
CONTINUOUS
 10
61.9482221749
 20
23.5854766326
 11
61.9482221749
 21
19.3854766326
  0
LINE
  5
2C0
100
AcDbEntity
  8
0
100
AcDbLine
 62
7
  6
CONTINUOUS
 10
64.1482221749
 20
23.5854766326
 11
64.1482221749
 21
19.3854766326
  0
LINE
  5
2C1
100
AcDbEntity
  8
0
100
AcDbLine
 62
7
  6
CONTINUOUS
 10
71.9482221749
 20
23.5854766326
 11
71.9482221749
 21
19.3854766326
  0
LINE
  5
2C2
100
AcDbEntity
  8
0
100
AcDbLine
 62
7
  6
CONTINUOUS
 10
-70.9517778251
 20
14.5854766326
 11
257.0482221749
 21
14.5854766326
  0
LINE
  5
2C3
100
AcDbEntity
  8
0
100
AcDbLine
 62
7
  6
CONTINUOUS
 10
-58.0517778251
 20
19.3854766326
 11
-55.8517778251
 21
19.3854766326
  0
LINE
  5
2C4
100
AcDbEntity
  8
0
100
AcDbLine
 62
7
  6
CONTINUOUS
 10
-48.0517778251
 20
19.3854766326
 11
-45.8517778251
 21
19.3854766326
  0
LINE
  5
2C5
100
AcDbEntity
  8
0
100
AcDbLine
 62
7
  6
CONTINUOUS
 10
-38.0517778251
 20
19.3854766326
 11
-35.8517778251
 21
19.3854766326
  0
LINE
  5
2C6
100
AcDbEntity
  8
0
100
AcDbLine
 62
7
  6
CONTINUOUS
 10
-28.0517778251
 20
19.3854766326
 11
-25.8517778251
 21
19.3854766326
  0
LINE
  5
2C7
100
AcDbEntity
  8
0
100
AcDbLine
 62
7
  6
CONTINUOUS
 10
-18.0517778251
 20
19.3854766326
 11
-15.8517778251
 21
19.3854766326
  0
LINE
  5
2C8
100
AcDbEntity
  8
0
100
AcDbLine
 62
7
  6
CONTINUOUS
 10
-8.0517778251
 20
19.3854766326
 11
-5.8517778251
 21
19.3854766326
  0
LINE
  5
2C9
100
AcDbEntity
  8
0
100
AcDbLine
 62
7
  6
CONTINUOUS
 10
1.9482221749
 20
19.3854766326
 11
4.1482221749
 21
19.3854766326
  0
LINE
  5
2CA
100
AcDbEntity
  8
0
100
AcDbLine
 62
7
  6
CONTINUOUS
 10
11.9482221749
 20
19.3854766326
 11
14.1482221749
 21
19.3854766326
  0
LINE
  5
2CB
100
AcDbEntity
  8
0
100
AcDbLine
 62
7
  6
CONTINUOUS
 10
21.9482221749
 20
19.3854766326
 11
24.1482221749
 21
19.3854766326
  0
LINE
  5
2CC
100
AcDbEntity
  8
0
100
AcDbLine
 62
7
  6
CONTINUOUS
 10
31.9482221749
 20
19.3854766326
 11
34.1482221749
 21
19.3854766326
  0
LINE
  5
2CD
100
AcDbEntity
  8
0
100
AcDbLine
 62
7
  6
CONTINUOUS
 10
41.9482221749
 20
19.3854766326
 11
44.1482221749
 21
19.3854766326
  0
LINE
  5
2CE
100
AcDbEntity
  8
0
100
AcDbLine
 62
7
  6
CONTINUOUS
 10
51.9482221749
 20
19.3854766326
 11
54.1482221749
 21
19.3854766326
  0
LINE
  5
2CF
100
AcDbEntity
  8
0
100
AcDbLine
 62
7
  6
CONTINUOUS
 10
61.9482221749
 20
19.3854766326
 11
64.1482221749
 21
19.3854766326
  0
LINE
  5
2D0
100
AcDbEntity
  8
0
100
AcDbLine
 62
7
  6
CONTINUOUS
 10
71.9482221749
 20
19.3854766326
 11
74.1482221749
 21
19.3854766326
  0
LINE
  5
2D1
100
AcDbEntity
  8
0
100
AcDbLine
 62
7
  6
CONTINUOUS
 10
81.9482221749
 20
19.3854766326
 11
84.1482221749
 21
19.3854766326
  0
LINE
  5
2D2
100
AcDbEntity
  8
0
100
AcDbLine
 62
7
  6
CONTINUOUS
 10
91.9482221749
 20
19.3854766326
 11
94.1482221749
 21
19.3854766326
  0
LINE
  5
2D3
100
AcDbEntity
  8
0
100
AcDbLine
 62
7
  6
CONTINUOUS
 10
101.9482221749
 20
19.3854766326
 11
104.1482221749
 21
19.3854766326
  0
LINE
  5
2D4
100
AcDbEntity
  8
0
100
AcDbLine
 62
7
  6
CONTINUOUS
 10
111.9482221749
 20
19.3854766326
 11
114.1482221749
 21
19.3854766326
  0
LINE
  5
2D5
100
AcDbEntity
  8
0
100
AcDbLine
 62
7
  6
CONTINUOUS
 10
121.9482221749
 20
19.3854766326
 11
124.1482221749
 21
19.3854766326
  0
LINE
  5
2D6
100
AcDbEntity
  8
0
100
AcDbLine
 62
7
  6
CONTINUOUS
 10
131.9482221749
 20
19.3854766326
 11
134.1482221749
 21
19.3854766326
  0
LINE
  5
2D7
100
AcDbEntity
  8
0
100
AcDbLine
 62
7
  6
CONTINUOUS
 10
141.9482221749
 20
19.3854766326
 11
144.1482221749
 21
19.3854766326
  0
LINE
  5
2D8
100
AcDbEntity
  8
0
100
AcDbLine
 62
7
  6
CONTINUOUS
 10
151.9482221749
 20
19.3854766326
 11
154.1482221749
 21
19.3854766326
  0
LINE
  5
2D9
100
AcDbEntity
  8
0
100
AcDbLine
 62
7
  6
CONTINUOUS
 10
161.9482221749
 20
19.3854766326
 11
164.1482221749
 21
19.3854766326
  0
LINE
  5
2DA
100
AcDbEntity
  8
0
100
AcDbLine
 62
7
  6
CONTINUOUS
 10
171.9482221749
 20
19.3854766326
 11
174.1482221749
 21
19.3854766326
  0
LINE
  5
2DB
100
AcDbEntity
  8
0
100
AcDbLine
 62
7
  6
CONTINUOUS
 10
181.9482221749
 20
19.3854766326
 11
184.1482221749
 21
19.3854766326
  0
LINE
  5
2DC
100
AcDbEntity
  8
0
100
AcDbLine
 62
7
  6
CONTINUOUS
 10
191.9482221749
 20
19.3854766326
 11
194.1482221749
 21
19.3854766326
  0
LINE
  5
2DD
100
AcDbEntity
  8
0
100
AcDbLine
 62
7
  6
CONTINUOUS
 10
201.9482221749
 20
19.3854766326
 11
204.1482221749
 21
19.3854766326
  0
LINE
  5
2DE
100
AcDbEntity
  8
0
100
AcDbLine
 62
7
  6
CONTINUOUS
 10
211.9482221749
 20
19.3854766326
 11
214.1482221749
 21
19.3854766326
  0
LINE
  5
2DF
100
AcDbEntity
  8
0
100
AcDbLine
 62
7
  6
CONTINUOUS
 10
221.9482221749
 20
19.3854766326
 11
224.1482221749
 21
19.3854766326
  0
LINE
  5
2E0
100
AcDbEntity
  8
0
100
AcDbLine
 62
7
  6
CONTINUOUS
 10
231.9482221749
 20
19.3854766326
 11
234.1482221749
 21
19.3854766326
  0
LINE
  5
2E1
100
AcDbEntity
  8
0
100
AcDbLine
 62
7
  6
CONTINUOUS
 10
241.9482221749
 20
19.3854766326
 11
244.1482221749
 21
19.3854766326
  0
LINE
  5
2E2
100
AcDbEntity
  8
0
100
AcDbLine
 62
7
  6
CONTINUOUS
 10
74.1482221749
 20
23.5854766326
 11
74.1482221749
 21
19.3854766326
  0
LINE
  5
2E3
100
AcDbEntity
  8
0
100
AcDbLine
 62
7
  6
CONTINUOUS
 10
81.9482221749
 20
23.5854766326
 11
81.9482221749
 21
19.3854766326
  0
LINE
  5
2E4
100
AcDbEntity
  8
0
100
AcDbLine
 62
7
  6
CONTINUOUS
 10
-58.0517778251
 20
23.5854766326
 11
-55.8517778251
 21
23.5854766326
  0
LINE
  5
2E5
100
AcDbEntity
  8
0
100
AcDbLine
 62
7
  6
CONTINUOUS
 10
-48.0517778251
 20
23.5854766326
 11
-45.8517778251
 21
23.5854766326
  0
LINE
  5
2E6
100
AcDbEntity
  8
0
100
AcDbLine
 62
7
  6
CONTINUOUS
 10
-38.0517778251
 20
23.5854766326
 11
-35.8517778251
 21
23.5854766326
  0
LINE
  5
2E7
100
AcDbEntity
  8
0
100
AcDbLine
 62
7
  6
CONTINUOUS
 10
-28.0517778251
 20
23.5854766326
 11
-25.8517778251
 21
23.5854766326
  0
LINE
  5
2E8
100
AcDbEntity
  8
0
100
AcDbLine
 62
7
  6
CONTINUOUS
 10
-18.0517778251
 20
23.5854766326
 11
-15.8517778251
 21
23.5854766326
  0
LINE
  5
2E9
100
AcDbEntity
  8
0
100
AcDbLine
 62
7
  6
CONTINUOUS
 10
-8.0517778251
 20
23.5854766326
 11
-5.8517778251
 21
23.5854766326
  0
LINE
  5
2EA
100
AcDbEntity
  8
0
100
AcDbLine
 62
7
  6
CONTINUOUS
 10
1.9482221749
 20
23.5854766326
 11
4.1482221749
 21
23.5854766326
  0
LINE
  5
2EB
100
AcDbEntity
  8
0
100
AcDbLine
 62
7
  6
CONTINUOUS
 10
11.9482221749
 20
23.5854766326
 11
14.1482221749
 21
23.5854766326
  0
LINE
  5
2EC
100
AcDbEntity
  8
0
100
AcDbLine
 62
7
  6
CONTINUOUS
 10
21.9482221749
 20
23.5854766326
 11
24.1482221749
 21
23.5854766326
  0
LINE
  5
2ED
100
AcDbEntity
  8
0
100
AcDbLine
 62
7
  6
CONTINUOUS
 10
31.9482221749
 20
23.5854766326
 11
34.1482221749
 21
23.5854766326
  0
LINE
  5
2EE
100
AcDbEntity
  8
0
100
AcDbLine
 62
7
  6
CONTINUOUS
 10
41.9482221749
 20
23.5854766326
 11
44.1482221749
 21
23.5854766326
  0
LINE
  5
2EF
100
AcDbEntity
  8
0
100
AcDbLine
 62
7
  6
CONTINUOUS
 10
51.9482221749
 20
23.5854766326
 11
54.1482221749
 21
23.5854766326
  0
LINE
  5
2F0
100
AcDbEntity
  8
0
100
AcDbLine
 62
7
  6
CONTINUOUS
 10
61.9482221749
 20
23.5854766326
 11
64.1482221749
 21
23.5854766326
  0
LINE
  5
2F1
100
AcDbEntity
  8
0
100
AcDbLine
 62
7
  6
CONTINUOUS
 10
71.9482221749
 20
23.5854766326
 11
74.1482221749
 21
23.5854766326
  0
LINE
  5
2F2
100
AcDbEntity
  8
0
100
AcDbLine
 62
7
  6
CONTINUOUS
 10
81.9482221749
 20
23.5854766326
 11
84.1482221749
 21
23.5854766326
  0
LINE
  5
2F3
100
AcDbEntity
  8
0
100
AcDbLine
 62
7
  6
CONTINUOUS
 10
91.9482221749
 20
23.5854766326
 11
94.1482221749
 21
23.5854766326
  0
LINE
  5
2F4
100
AcDbEntity
  8
0
100
AcDbLine
 62
7
  6
CONTINUOUS
 10
101.9482221749
 20
23.5854766326
 11
104.1482221749
 21
23.5854766326
  0
LINE
  5
2F5
100
AcDbEntity
  8
0
100
AcDbLine
 62
7
  6
CONTINUOUS
 10
111.9482221749
 20
23.5854766326
 11
114.1482221749
 21
23.5854766326
  0
LINE
  5
2F6
100
AcDbEntity
  8
0
100
AcDbLine
 62
7
  6
CONTINUOUS
 10
121.9482221749
 20
23.5854766326
 11
124.1482221749
 21
23.5854766326
  0
LINE
  5
2F7
100
AcDbEntity
  8
0
100
AcDbLine
 62
7
  6
CONTINUOUS
 10
131.9482221749
 20
23.5854766326
 11
134.1482221749
 21
23.5854766326
  0
LINE
  5
2F8
100
AcDbEntity
  8
0
100
AcDbLine
 62
7
  6
CONTINUOUS
 10
141.9482221749
 20
23.5854766326
 11
144.1482221749
 21
23.5854766326
  0
LINE
  5
2F9
100
AcDbEntity
  8
0
100
AcDbLine
 62
7
  6
CONTINUOUS
 10
151.9482221749
 20
23.5854766326
 11
154.1482221749
 21
23.5854766326
  0
LINE
  5
2FA
100
AcDbEntity
  8
0
100
AcDbLine
 62
7
  6
CONTINUOUS
 10
161.9482221749
 20
23.5854766326
 11
164.1482221749
 21
23.5854766326
  0
LINE
  5
2FB
100
AcDbEntity
  8
0
100
AcDbLine
 62
7
  6
CONTINUOUS
 10
171.9482221749
 20
23.5854766326
 11
174.1482221749
 21
23.5854766326
  0
LINE
  5
2FC
100
AcDbEntity
  8
0
100
AcDbLine
 62
7
  6
CONTINUOUS
 10
181.9482221749
 20
23.5854766326
 11
184.1482221749
 21
23.5854766326
  0
LINE
  5
2FD
100
AcDbEntity
  8
0
100
AcDbLine
 62
7
  6
CONTINUOUS
 10
191.9482221749
 20
23.5854766326
 11
194.1482221749
 21
23.5854766326
  0
LINE
  5
2FE
100
AcDbEntity
  8
0
100
AcDbLine
 62
7
  6
CONTINUOUS
 10
201.9482221749
 20
23.5854766326
 11
204.1482221749
 21
23.5854766326
  0
LINE
  5
2FF
100
AcDbEntity
  8
0
100
AcDbLine
 62
7
  6
CONTINUOUS
 10
211.9482221749
 20
23.5854766326
 11
214.1482221749
 21
23.5854766326
  0
LINE
  5
300
100
AcDbEntity
  8
0
100
AcDbLine
 62
7
  6
CONTINUOUS
 10
221.9482221749
 20
23.5854766326
 11
224.1482221749
 21
23.5854766326
  0
LINE
  5
301
100
AcDbEntity
  8
0
100
AcDbLine
 62
7
  6
CONTINUOUS
 10
231.9482221749
 20
23.5854766326
 11
234.1482221749
 21
23.5854766326
  0
LINE
  5
302
100
AcDbEntity
  8
0
100
AcDbLine
 62
7
  6
CONTINUOUS
 10
241.9482221749
 20
23.5854766326
 11
244.1482221749
 21
23.5854766326
  0
LINE
  5
303
100
AcDbEntity
  8
0
100
AcDbLine
 62
7
  6
CONTINUOUS
 10
84.1482221749
 20
23.5854766326
 11
84.1482221749
 21
19.3854766326
  0
LINE
  5
304
100
AcDbEntity
  8
0
100
AcDbLine
 62
7
  6
CONTINUOUS
 10
84.8982221749
 20
57.7854766326
 11
84.8982221749
 21
36.5854766326
  0
LINE
  5
305
100
AcDbEntity
  8
0
100
AcDbLine
 62
7
  6
CONTINUOUS
 10
91.9482221749
 20
23.5854766326
 11
91.9482221749
 21
19.3854766326
  0
LINE
  5
306
100
AcDbEntity
  8
0
100
AcDbLine
 62
7
  6
CONTINUOUS
 10
94.1482221749
 20
23.5854766326
 11
94.1482221749
 21
19.3854766326
  0
LINE
  5
307
100
AcDbEntity
  8
0
100
AcDbLine
 62
7
  6
CONTINUOUS
 10
84.8982221749
 20
36.5854766326
 11
101.1982221749
 21
36.5854766326
  0
LINE
  5
308
100
AcDbEntity
  8
0
100
AcDbLine
 62
7
  6
CONTINUOUS
 10
101.1982221749
 20
36.5854766326
 11
101.1982221749
 21
57.7854766326
  0
LINE
  5
309
100
AcDbEntity
  8
0
100
AcDbLine
 62
7
  6
CONTINUOUS
 10
101.9482221749
 20
23.5854766326
 11
101.9482221749
 21
19.3854766326
  0
LINE
  5
30A
100
AcDbEntity
  8
0
100
AcDbLine
 62
7
  6
CONTINUOUS
 10
104.1482221749
 20
23.5854766326
 11
104.1482221749
 21
19.3854766326
  0
LINE
  5
30B
100
AcDbEntity
  8
0
100
AcDbLine
 62
7
  6
CONTINUOUS
 10
111.9482221749
 20
23.5854766326
 11
111.9482221749
 21
19.3854766326
  0
LINE
  5
30C
100
AcDbEntity
  8
0
100
AcDbLine
 62
7
  6
CONTINUOUS
 10
114.1482221749
 20
23.5854766326
 11
114.1482221749
 21
19.3854766326
  0
LINE
  5
30D
100
AcDbEntity
  8
0
100
AcDbLine
 62
7
  6
CONTINUOUS
 10
101.1982221749
 20
57.7854766326
 11
84.8982221749
 21
57.7854766326
  0
LINE
  5
30E
100
AcDbEntity
  8
0
100
AcDbLine
 62
7
  6
CONTINUOUS
 10
121.9482221749
 20
23.5854766326
 11
121.9482221749
 21
19.3854766326
  0
LINE
  5
30F
100
AcDbEntity
  8
0
100
AcDbLine
 62
7
  6
CONTINUOUS
 10
124.1482221749
 20
23.5854766326
 11
124.1482221749
 21
19.3854766326
  0
LINE
  5
310
100
AcDbEntity
  8
0
100
AcDbLine
 62
7
  6
CONTINUOUS
 10
257.0482221749
 20
69.5854766326
 11
-70.9517778251
 21
69.5854766326
  0
LINE
  5
311
100
AcDbEntity
  8
0
100
AcDbLine
 62
7
  6
CONTINUOUS
 10
131.9482221749
 20
23.5854766326
 11
131.9482221749
 21
19.3854766326
  0
LINE
  5
312
100
AcDbEntity
  8
0
100
AcDbLine
 62
7
  6
CONTINUOUS
 10
134.1482221749
 20
23.5854766326
 11
134.1482221749
 21
19.3854766326
  0
LINE
  5
313
100
AcDbEntity
  8
0
100
AcDbLine
 62
7
  6
CONTINUOUS
 10
141.9482221749
 20
23.5854766326
 11
141.9482221749
 21
19.3854766326
  0
LINE
  5
314
100
AcDbEntity
  8
0
100
AcDbLine
 62
7
  6
CONTINUOUS
 10
144.1482221749
 20
23.5854766326
 11
144.1482221749
 21
19.3854766326
  0
LINE
  5
315
100
AcDbEntity
  8
0
100
AcDbLine
 62
7
  6
CONTINUOUS
 10
151.9482221749
 20
23.5854766326
 11
151.9482221749
 21
19.3854766326
  0
LINE
  5
316
100
AcDbEntity
  8
0
100
AcDbLine
 62
7
  6
CONTINUOUS
 10
154.1482221749
 20
23.5854766326
 11
154.1482221749
 21
19.3854766326
  0
LINE
  5
317
100
AcDbEntity
  8
0
100
AcDbLine
 62
7
  6
CONTINUOUS
 10
161.9482221749
 20
23.5854766326
 11
161.9482221749
 21
19.3854766326
  0
LINE
  5
318
100
AcDbEntity
  8
0
100
AcDbLine
 62
7
  6
CONTINUOUS
 10
164.1482221749
 20
23.5854766326
 11
164.1482221749
 21
19.3854766326
  0
LINE
  5
319
100
AcDbEntity
  8
0
100
AcDbLine
 62
7
  6
CONTINUOUS
 10
171.9482221749
 20
23.5854766326
 11
171.9482221749
 21
19.3854766326
  0
LINE
  5
31A
100
AcDbEntity
  8
0
100
AcDbLine
 62
7
  6
CONTINUOUS
 10
174.1482221749
 20
23.5854766326
 11
174.1482221749
 21
19.3854766326
  0
LINE
  5
31B
100
AcDbEntity
  8
0
100
AcDbLine
 62
7
  6
CONTINUOUS
 10
181.9482221749
 20
23.5854766326
 11
181.9482221749
 21
19.3854766326
  0
LINE
  5
31C
100
AcDbEntity
  8
0
100
AcDbLine
 62
7
  6
CONTINUOUS
 10
184.1482221749
 20
23.5854766326
 11
184.1482221749
 21
19.3854766326
  0
LINE
  5
31D
100
AcDbEntity
  8
0
100
AcDbLine
 62
7
  6
CONTINUOUS
 10
191.9482221749
 20
23.5854766326
 11
191.9482221749
 21
19.3854766326
  0
LINE
  5
31E
100
AcDbEntity
  8
0
100
AcDbLine
 62
7
  6
CONTINUOUS
 10
194.1482221749
 20
23.5854766326
 11
194.1482221749
 21
19.3854766326
  0
LINE
  5
31F
100
AcDbEntity
  8
0
100
AcDbLine
 62
7
  6
CONTINUOUS
 10
201.9482221749
 20
23.5854766326
 11
201.9482221749
 21
19.3854766326
  0
LINE
  5
320
100
AcDbEntity
  8
0
100
AcDbLine
 62
7
  6
CONTINUOUS
 10
204.1482221749
 20
23.5854766326
 11
204.1482221749
 21
19.3854766326
  0
LINE
  5
321
100
AcDbEntity
  8
0
100
AcDbLine
 62
7
  6
CONTINUOUS
 10
211.9482221749
 20
23.5854766326
 11
211.9482221749
 21
19.3854766326
  0
LINE
  5
322
100
AcDbEntity
  8
0
100
AcDbLine
 62
7
  6
CONTINUOUS
 10
214.1482221749
 20
23.5854766326
 11
214.1482221749
 21
19.3854766326
  0
LINE
  5
323
100
AcDbEntity
  8
0
100
AcDbLine
 62
7
  6
CONTINUOUS
 10
221.9482221749
 20
23.5854766326
 11
221.9482221749
 21
19.3854766326
  0
LINE
  5
324
100
AcDbEntity
  8
0
100
AcDbLine
 62
7
  6
CONTINUOUS
 10
224.1482221749
 20
23.5854766326
 11
224.1482221749
 21
19.3854766326
  0
LINE
  5
325
100
AcDbEntity
  8
0
100
AcDbLine
 62
7
  6
CONTINUOUS
 10
231.9482221749
 20
23.5854766326
 11
231.9482221749
 21
19.3854766326
  0
LINE
  5
326
100
AcDbEntity
  8
0
100
AcDbLine
 62
7
  6
CONTINUOUS
 10
234.1482221749
 20
23.5854766326
 11
234.1482221749
 21
19.3854766326
  0
LINE
  5
327
100
AcDbEntity
  8
0
100
AcDbLine
 62
7
  6
CONTINUOUS
 10
241.9482221749
 20
23.5854766326
 11
241.9482221749
 21
19.3854766326
  0
LINE
  5
328
100
AcDbEntity
  8
0
100
AcDbLine
 62
7
  6
CONTINUOUS
 10
244.1482221749
 20
23.5854766326
 11
244.1482221749
 21
19.3854766326
  0
LINE
  5
329
100
AcDbEntity
  8
0
100
AcDbLine
 62
7
  6
CONTINUOUS
 10
257.0482221749
 20
14.5854766326
 11
257.0482221749
 21
69.5854766326
  0
LINE
  5
32A
100
AcDbEntity
  8
0
100
AcDbLine
 62
7
  6
CONTINUOUS
 10
-69.2225362838
 20
5.7890020085
 11
-69.2225362838
 21
-49.2109979915
  0
LINE
  5
32B
100
AcDbEntity
  8
0
100
AcDbLine
 62
7
  6
CONTINUOUS
 10
-56.3225362838
 20
-40.2109979915
 11
-56.3225362838
 21
-44.4109979915
  0
LINE
  5
32C
100
AcDbEntity
  8
0
100
AcDbLine
 62
7
  6
CONTINUOUS
 10
-54.1225362838
 20
-40.2109979915
 11
-54.1225362838
 21
-44.4109979915
  0
LINE
  5
32D
100
AcDbEntity
  8
0
100
AcDbLine
 62
7
  6
CONTINUOUS
 10
-46.3225362838
 20
-40.2109979915
 11
-46.3225362838
 21
-44.4109979915
  0
LINE
  5
32E
100
AcDbEntity
  8
0
100
AcDbLine
 62
7
  6
CONTINUOUS
 10
-44.1225362838
 20
-40.2109979915
 11
-44.1225362838
 21
-44.4109979915
  0
LINE
  5
32F
100
AcDbEntity
  8
0
100
AcDbLine
 62
7
  6
CONTINUOUS
 10
-36.3225362838
 20
-40.2109979915
 11
-36.3225362838
 21
-44.4109979915
  0
LINE
  5
330
100
AcDbEntity
  8
0
100
AcDbLine
 62
7
  6
CONTINUOUS
 10
-34.1225362838
 20
-40.2109979915
 11
-34.1225362838
 21
-44.4109979915
  0
LINE
  5
331
100
AcDbEntity
  8
0
100
AcDbLine
 62
7
  6
CONTINUOUS
 10
-26.3225362838
 20
-40.2109979915
 11
-26.3225362838
 21
-44.4109979915
  0
LINE
  5
332
100
AcDbEntity
  8
0
100
AcDbLine
 62
7
  6
CONTINUOUS
 10
-24.1225362838
 20
-40.2109979915
 11
-24.1225362838
 21
-44.4109979915
  0
LINE
  5
333
100
AcDbEntity
  8
0
100
AcDbLine
 62
7
  6
CONTINUOUS
 10
-16.3225362838
 20
-40.2109979915
 11
-16.3225362838
 21
-44.4109979915
  0
LINE
  5
334
100
AcDbEntity
  8
0
100
AcDbLine
 62
7
  6
CONTINUOUS
 10
-14.1225362838
 20
-40.2109979915
 11
-14.1225362838
 21
-44.4109979915
  0
LINE
  5
335
100
AcDbEntity
  8
0
100
AcDbLine
 62
7
  6
CONTINUOUS
 10
-69.2225362838
 20
-49.2109979915
 11
98.7774637162
 21
-49.2109979915
  0
LINE
  5
336
100
AcDbEntity
  8
0
100
AcDbLine
 62
7
  6
CONTINUOUS
 10
-6.3225362838
 20
-40.2109979915
 11
-6.3225362838
 21
-44.4109979915
  0
LINE
  5
337
100
AcDbEntity
  8
0
100
AcDbLine
 62
7
  6
CONTINUOUS
 10
-4.1225362838
 20
-40.2109979915
 11
-4.1225362838
 21
-44.4109979915
  0
LINE
  5
338
100
AcDbEntity
  8
0
100
AcDbLine
 62
7
  6
CONTINUOUS
 10
85.8774637162
 20
-44.4109979915
 11
83.6774637162
 21
-44.4109979915
  0
LINE
  5
339
100
AcDbEntity
  8
0
100
AcDbLine
 62
7
  6
CONTINUOUS
 10
75.8774637162
 20
-44.4109979915
 11
73.6774637162
 21
-44.4109979915
  0
LINE
  5
33A
100
AcDbEntity
  8
0
100
AcDbLine
 62
7
  6
CONTINUOUS
 10
65.8774637162
 20
-44.4109979915
 11
63.6774637162
 21
-44.4109979915
  0
LINE
  5
33B
100
AcDbEntity
  8
0
100
AcDbLine
 62
7
  6
CONTINUOUS
 10
55.8774637162
 20
-44.4109979915
 11
53.6774637162
 21
-44.4109979915
  0
LINE
  5
33C
100
AcDbEntity
  8
0
100
AcDbLine
 62
7
  6
CONTINUOUS
 10
45.8774637162
 20
-44.4109979915
 11
43.6774637162
 21
-44.4109979915
  0
LINE
  5
33D
100
AcDbEntity
  8
0
100
AcDbLine
 62
7
  6
CONTINUOUS
 10
35.8774637162
 20
-44.4109979915
 11
33.6774637162
 21
-44.4109979915
  0
LINE
  5
33E
100
AcDbEntity
  8
0
100
AcDbLine
 62
7
  6
CONTINUOUS
 10
25.8774637162
 20
-44.4109979915
 11
23.6774637162
 21
-44.4109979915
  0
LINE
  5
33F
100
AcDbEntity
  8
0
100
AcDbLine
 62
7
  6
CONTINUOUS
 10
15.8774637162
 20
-44.4109979915
 11
13.6774637162
 21
-44.4109979915
  0
LINE
  5
340
100
AcDbEntity
  8
0
100
AcDbLine
 62
7
  6
CONTINUOUS
 10
5.8774637162
 20
-44.4109979915
 11
3.6774637162
 21
-44.4109979915
  0
LINE
  5
341
100
AcDbEntity
  8
0
100
AcDbLine
 62
7
  6
CONTINUOUS
 10
-4.1225362838
 20
-44.4109979915
 11
-6.3225362838
 21
-44.4109979915
  0
LINE
  5
342
100
AcDbEntity
  8
0
100
AcDbLine
 62
7
  6
CONTINUOUS
 10
-14.1225362838
 20
-44.4109979915
 11
-16.3225362838
 21
-44.4109979915
  0
LINE
  5
343
100
AcDbEntity
  8
0
100
AcDbLine
 62
7
  6
CONTINUOUS
 10
-24.1225362838
 20
-44.4109979915
 11
-26.3225362838
 21
-44.4109979915
  0
LINE
  5
344
100
AcDbEntity
  8
0
100
AcDbLine
 62
7
  6
CONTINUOUS
 10
-34.1225362838
 20
-44.4109979915
 11
-36.3225362838
 21
-44.4109979915
  0
LINE
  5
345
100
AcDbEntity
  8
0
100
AcDbLine
 62
7
  6
CONTINUOUS
 10
-44.1225362838
 20
-44.4109979915
 11
-46.3225362838
 21
-44.4109979915
  0
LINE
  5
346
100
AcDbEntity
  8
0
100
AcDbLine
 62
7
  6
CONTINUOUS
 10
-54.1225362838
 20
-44.4109979915
 11
-56.3225362838
 21
-44.4109979915
  0
LINE
  5
347
100
AcDbEntity
  8
0
100
AcDbLine
 62
7
  6
CONTINUOUS
 10
85.8774637162
 20
-40.2109979915
 11
83.6774637162
 21
-40.2109979915
  0
LINE
  5
348
100
AcDbEntity
  8
0
100
AcDbLine
 62
7
  6
CONTINUOUS
 10
75.8774637162
 20
-40.2109979915
 11
73.6774637162
 21
-40.2109979915
  0
LINE
  5
349
100
AcDbEntity
  8
0
100
AcDbLine
 62
7
  6
CONTINUOUS
 10
65.8774637162
 20
-40.2109979915
 11
63.6774637162
 21
-40.2109979915
  0
LINE
  5
34A
100
AcDbEntity
  8
0
100
AcDbLine
 62
7
  6
CONTINUOUS
 10
55.8774637162
 20
-40.2109979915
 11
53.6774637162
 21
-40.2109979915
  0
LINE
  5
34B
100
AcDbEntity
  8
0
100
AcDbLine
 62
7
  6
CONTINUOUS
 10
45.8774637162
 20
-40.2109979915
 11
43.6774637162
 21
-40.2109979915
  0
LINE
  5
34C
100
AcDbEntity
  8
0
100
AcDbLine
 62
7
  6
CONTINUOUS
 10
35.8774637162
 20
-40.2109979915
 11
33.6774637162
 21
-40.2109979915
  0
LINE
  5
34D
100
AcDbEntity
  8
0
100
AcDbLine
 62
7
  6
CONTINUOUS
 10
25.8774637162
 20
-40.2109979915
 11
23.6774637162
 21
-40.2109979915
  0
LINE
  5
34E
100
AcDbEntity
  8
0
100
AcDbLine
 62
7
  6
CONTINUOUS
 10
15.8774637162
 20
-40.2109979915
 11
13.6774637162
 21
-40.2109979915
  0
LINE
  5
34F
100
AcDbEntity
  8
0
100
AcDbLine
 62
7
  6
CONTINUOUS
 10
5.8774637162
 20
-40.2109979915
 11
3.6774637162
 21
-40.2109979915
  0
LINE
  5
350
100
AcDbEntity
  8
0
100
AcDbLine
 62
7
  6
CONTINUOUS
 10
-4.1225362838
 20
-40.2109979915
 11
-6.3225362838
 21
-40.2109979915
  0
LINE
  5
351
100
AcDbEntity
  8
0
100
AcDbLine
 62
7
  6
CONTINUOUS
 10
-14.1225362838
 20
-40.2109979915
 11
-16.3225362838
 21
-40.2109979915
  0
LINE
  5
352
100
AcDbEntity
  8
0
100
AcDbLine
 62
7
  6
CONTINUOUS
 10
-24.1225362838
 20
-40.2109979915
 11
-26.3225362838
 21
-40.2109979915
  0
LINE
  5
353
100
AcDbEntity
  8
0
100
AcDbLine
 62
7
  6
CONTINUOUS
 10
-34.1225362838
 20
-40.2109979915
 11
-36.3225362838
 21
-40.2109979915
  0
LINE
  5
354
100
AcDbEntity
  8
0
100
AcDbLine
 62
7
  6
CONTINUOUS
 10
-44.1225362838
 20
-40.2109979915
 11
-46.3225362838
 21
-40.2109979915
  0
LINE
  5
355
100
AcDbEntity
  8
0
100
AcDbLine
 62
7
  6
CONTINUOUS
 10
-54.1225362838
 20
-40.2109979915
 11
-56.3225362838
 21
-40.2109979915
  0
LINE
  5
356
100
AcDbEntity
  8
0
100
AcDbLine
 62
7
  6
CONTINUOUS
 10
3.6774637162
 20
-40.2109979915
 11
3.6774637162
 21
-44.4109979915
  0
LINE
  5
357
100
AcDbEntity
  8
0
100
AcDbLine
 62
7
  6
CONTINUOUS
 10
5.8774637162
 20
-40.2109979915
 11
5.8774637162
 21
-44.4109979915
  0
LINE
  5
358
100
AcDbEntity
  8
0
100
AcDbLine
 62
7
  6
CONTINUOUS
 10
13.6774637162
 20
-40.2109979915
 11
13.6774637162
 21
-44.4109979915
  0
LINE
  5
359
100
AcDbEntity
  8
0
100
AcDbLine
 62
7
  6
CONTINUOUS
 10
62.2774637162
 20
-25.7109979915
 11
67.2774637162
 21
-25.7109979915
  0
LINE
  5
35A
100
AcDbEntity
  8
0
100
AcDbLine
 62
7
  6
CONTINUOUS
 10
15.8774637162
 20
-40.2109979915
 11
15.8774637162
 21
-44.4109979915
  0
LINE
  5
35B
100
AcDbEntity
  8
0
100
AcDbLine
 62
7
  6
CONTINUOUS
 10
67.2774637162
 20
-17.7109979915
 11
62.2774637162
 21
-17.7109979915
  0
LINE
  5
35C
100
AcDbEntity
  8
0
100
AcDbLine
 62
7
  6
CONTINUOUS
 10
-12.2225362838
 20
-15.2109979915
 11
1.7774637162
 21
-15.2109979915
  0
LINE
  5
35D
100
AcDbEntity
  8
0
100
AcDbLine
 62
7
  6
CONTINUOUS
 10
23.6774637162
 20
-40.2109979915
 11
23.6774637162
 21
-44.4109979915
  0
LINE
  5
35E
100
AcDbEntity
  8
0
100
AcDbLine
 62
7
  6
CONTINUOUS
 10
25.8774637162
 20
-40.2109979915
 11
25.8774637162
 21
-44.4109979915
  0
LINE
  5
35F
100
AcDbEntity
  8
0
100
AcDbLine
 62
7
  6
CONTINUOUS
 10
1.7774637162
 20
-8.2109979915
 11
-12.2225362838
 21
-8.2109979915
  0
LINE
  5
360
100
AcDbEntity
  8
0
100
AcDbLine
 62
7
  6
CONTINUOUS
 10
33.6774637162
 20
-40.2109979915
 11
33.6774637162
 21
-44.4109979915
  0
LINE
  5
361
100
AcDbEntity
  8
0
100
AcDbLine
 62
7
  6
CONTINUOUS
 10
35.8774637162
 20
-40.2109979915
 11
35.8774637162
 21
-44.4109979915
  0
LINE
  5
362
100
AcDbEntity
  8
0
100
AcDbLine
 62
7
  6
CONTINUOUS
 10
43.6774637162
 20
-40.2109979915
 11
43.6774637162
 21
-44.4109979915
  0
LINE
  5
363
100
AcDbEntity
  8
0
100
AcDbLine
 62
7
  6
CONTINUOUS
 10
98.7774637162
 20
5.7890020085
 11
-69.2225362838
 21
5.7890020085
  0
LINE
  5
364
100
AcDbEntity
  8
0
100
AcDbLine
 62
7
  6
CONTINUOUS
 10
45.8774637162
 20
-40.2109979915
 11
45.8774637162
 21
-44.4109979915
  0
LINE
  5
365
100
AcDbEntity
  8
0
100
AcDbLine
 62
7
  6
CONTINUOUS
 10
53.6774637162
 20
-40.2109979915
 11
53.6774637162
 21
-44.4109979915
  0
LINE
  5
366
100
AcDbEntity
  8
0
100
AcDbLine
 62
7
  6
CONTINUOUS
 10
55.8774637162
 20
-40.2109979915
 11
55.8774637162
 21
-44.4109979915
  0
LINE
  5
367
100
AcDbEntity
  8
0
100
AcDbLine
 62
7
  6
CONTINUOUS
 10
63.6774637162
 20
-40.2109979915
 11
63.6774637162
 21
-44.4109979915
  0
LINE
  5
368
100
AcDbEntity
  8
0
100
AcDbLine
 62
7
  6
CONTINUOUS
 10
65.8774637162
 20
-40.2109979915
 11
65.8774637162
 21
-44.4109979915
  0
LINE
  5
369
100
AcDbEntity
  8
0
100
AcDbLine
 62
7
  6
CONTINUOUS
 10
73.6774637162
 20
-40.2109979915
 11
73.6774637162
 21
-44.4109979915
  0
LINE
  5
36A
100
AcDbEntity
  8
0
100
AcDbLine
 62
7
  6
CONTINUOUS
 10
75.8774637162
 20
-40.2109979915
 11
75.8774637162
 21
-44.4109979915
  0
LINE
  5
36B
100
AcDbEntity
  8
0
100
AcDbLine
 62
7
  6
CONTINUOUS
 10
83.6774637162
 20
-40.2109979915
 11
83.6774637162
 21
-44.4109979915
  0
LINE
  5
36C
100
AcDbEntity
  8
0
100
AcDbLine
 62
7
  6
CONTINUOUS
 10
85.8774637162
 20
-40.2109979915
 11
85.8774637162
 21
-44.4109979915
  0
LINE
  5
36D
100
AcDbEntity
  8
0
100
AcDbLine
 62
7
  6
CONTINUOUS
 10
98.7774637162
 20
-49.2109979915
 11
98.7774637162
 21
5.7890020085
  0
LINE
  5
36E
100
AcDbEntity
  8
0
100
AcDbLine
 62
7
  6
CONTINUOUS
 10
115.0901006817
 20
4.7633512833
 11
115.0901006817
 21
-50.2366487167
  0
LINE
  5
36F
100
AcDbEntity
  8
0
100
AcDbLine
 62
7
  6
CONTINUOUS
 10
127.9901006817
 20
-41.2366487167
 11
127.9901006817
 21
-45.4366487167
  0
LINE
  5
370
100
AcDbEntity
  8
0
100
AcDbLine
 62
7
  6
CONTINUOUS
 10
130.1901006817
 20
-41.2366487167
 11
130.1901006817
 21
-45.4366487167
  0
LINE
  5
371
100
AcDbEntity
  8
0
100
AcDbLine
 62
7
  6
CONTINUOUS
 10
137.9901006817
 20
-41.2366487167
 11
137.9901006817
 21
-45.4366487167
  0
LINE
  5
372
100
AcDbEntity
  8
0
100
AcDbLine
 62
7
  6
CONTINUOUS
 10
140.1901006817
 20
-41.2366487167
 11
140.1901006817
 21
-45.4366487167
  0
LINE
  5
373
100
AcDbEntity
  8
0
100
AcDbLine
 62
7
  6
CONTINUOUS
 10
147.9901006817
 20
-41.2366487167
 11
147.9901006817
 21
-45.4366487167
  0
LINE
  5
374
100
AcDbEntity
  8
0
100
AcDbLine
 62
7
  6
CONTINUOUS
 10
150.1901006817
 20
-41.2366487167
 11
150.1901006817
 21
-45.4366487167
  0
LINE
  5
375
100
AcDbEntity
  8
0
100
AcDbLine
 62
7
  6
CONTINUOUS
 10
157.9901006817
 20
-41.2366487167
 11
157.9901006817
 21
-45.4366487167
  0
LINE
  5
376
100
AcDbEntity
  8
0
100
AcDbLine
 62
7
  6
CONTINUOUS
 10
160.1901006817
 20
-41.2366487167
 11
160.1901006817
 21
-45.4366487167
  0
LINE
  5
377
100
AcDbEntity
  8
0
100
AcDbLine
 62
7
  6
CONTINUOUS
 10
167.9901006817
 20
-41.2366487167
 11
167.9901006817
 21
-45.4366487167
  0
LINE
  5
378
100
AcDbEntity
  8
0
100
AcDbLine
 62
7
  6
CONTINUOUS
 10
170.1901006817
 20
-41.2366487167
 11
170.1901006817
 21
-45.4366487167
  0
LINE
  5
379
100
AcDbEntity
  8
0
100
AcDbLine
 62
7
  6
CONTINUOUS
 10
115.0901006817
 20
-50.2366487167
 11
283.0901006817
 21
-50.2366487167
  0
LINE
  5
37A
100
AcDbEntity
  8
0
100
AcDbLine
 62
7
  6
CONTINUOUS
 10
177.9901006817
 20
-41.2366487167
 11
177.9901006817
 21
-45.4366487167
  0
LINE
  5
37B
100
AcDbEntity
  8
0
100
AcDbLine
 62
7
  6
CONTINUOUS
 10
180.1901006817
 20
-41.2366487167
 11
180.1901006817
 21
-45.4366487167
  0
LINE
  5
37C
100
AcDbEntity
  8
0
100
AcDbLine
 62
7
  6
CONTINUOUS
 10
127.9901006817
 20
-45.4366487167
 11
130.1901006817
 21
-45.4366487167
  0
LINE
  5
37D
100
AcDbEntity
  8
0
100
AcDbLine
 62
7
  6
CONTINUOUS
 10
137.9901006817
 20
-45.4366487167
 11
140.1901006817
 21
-45.4366487167
  0
LINE
  5
37E
100
AcDbEntity
  8
0
100
AcDbLine
 62
7
  6
CONTINUOUS
 10
147.9901006817
 20
-45.4366487167
 11
150.1901006817
 21
-45.4366487167
  0
LINE
  5
37F
100
AcDbEntity
  8
0
100
AcDbLine
 62
7
  6
CONTINUOUS
 10
157.9901006817
 20
-45.4366487167
 11
160.1901006817
 21
-45.4366487167
  0
LINE
  5
380
100
AcDbEntity
  8
0
100
AcDbLine
 62
7
  6
CONTINUOUS
 10
167.9901006817
 20
-45.4366487167
 11
170.1901006817
 21
-45.4366487167
  0
LINE
  5
381
100
AcDbEntity
  8
0
100
AcDbLine
 62
7
  6
CONTINUOUS
 10
177.9901006817
 20
-45.4366487167
 11
180.1901006817
 21
-45.4366487167
  0
LINE
  5
382
100
AcDbEntity
  8
0
100
AcDbLine
 62
7
  6
CONTINUOUS
 10
187.9901006817
 20
-45.4366487167
 11
190.1901006817
 21
-45.4366487167
  0
LINE
  5
383
100
AcDbEntity
  8
0
100
AcDbLine
 62
7
  6
CONTINUOUS
 10
197.9901006817
 20
-45.4366487167
 11
200.1901006817
 21
-45.4366487167
  0
LINE
  5
384
100
AcDbEntity
  8
0
100
AcDbLine
 62
7
  6
CONTINUOUS
 10
207.9901006817
 20
-45.4366487167
 11
210.1901006817
 21
-45.4366487167
  0
LINE
  5
385
100
AcDbEntity
  8
0
100
AcDbLine
 62
7
  6
CONTINUOUS
 10
217.9901006817
 20
-45.4366487167
 11
220.1901006817
 21
-45.4366487167
  0
LINE
  5
386
100
AcDbEntity
  8
0
100
AcDbLine
 62
7
  6
CONTINUOUS
 10
227.9901006817
 20
-45.4366487167
 11
230.1901006817
 21
-45.4366487167
  0
LINE
  5
387
100
AcDbEntity
  8
0
100
AcDbLine
 62
7
  6
CONTINUOUS
 10
237.9901006817
 20
-45.4366487167
 11
240.1901006817
 21
-45.4366487167
  0
LINE
  5
388
100
AcDbEntity
  8
0
100
AcDbLine
 62
7
  6
CONTINUOUS
 10
247.9901006817
 20
-45.4366487167
 11
250.1901006817
 21
-45.4366487167
  0
LINE
  5
389
100
AcDbEntity
  8
0
100
AcDbLine
 62
7
  6
CONTINUOUS
 10
257.9901006817
 20
-45.4366487167
 11
260.1901006817
 21
-45.4366487167
  0
LINE
  5
38A
100
AcDbEntity
  8
0
100
AcDbLine
 62
7
  6
CONTINUOUS
 10
267.9901006817
 20
-45.4366487167
 11
270.1901006817
 21
-45.4366487167
  0
LINE
  5
38B
100
AcDbEntity
  8
0
100
AcDbLine
 62
7
  6
CONTINUOUS
 10
127.9901006817
 20
-41.2366487167
 11
130.1901006817
 21
-41.2366487167
  0
LINE
  5
38C
100
AcDbEntity
  8
0
100
AcDbLine
 62
7
  6
CONTINUOUS
 10
137.9901006817
 20
-41.2366487167
 11
140.1901006817
 21
-41.2366487167
  0
LINE
  5
38D
100
AcDbEntity
  8
0
100
AcDbLine
 62
7
  6
CONTINUOUS
 10
147.9901006817
 20
-41.2366487167
 11
150.1901006817
 21
-41.2366487167
  0
LINE
  5
38E
100
AcDbEntity
  8
0
100
AcDbLine
 62
7
  6
CONTINUOUS
 10
157.9901006817
 20
-41.2366487167
 11
160.1901006817
 21
-41.2366487167
  0
LINE
  5
38F
100
AcDbEntity
  8
0
100
AcDbLine
 62
7
  6
CONTINUOUS
 10
167.9901006817
 20
-41.2366487167
 11
170.1901006817
 21
-41.2366487167
  0
LINE
  5
390
100
AcDbEntity
  8
0
100
AcDbLine
 62
7
  6
CONTINUOUS
 10
177.9901006817
 20
-41.2366487167
 11
180.1901006817
 21
-41.2366487167
  0
LINE
  5
391
100
AcDbEntity
  8
0
100
AcDbLine
 62
7
  6
CONTINUOUS
 10
187.9901006817
 20
-41.2366487167
 11
190.1901006817
 21
-41.2366487167
  0
LINE
  5
392
100
AcDbEntity
  8
0
100
AcDbLine
 62
7
  6
CONTINUOUS
 10
197.9901006817
 20
-41.2366487167
 11
200.1901006817
 21
-41.2366487167
  0
LINE
  5
393
100
AcDbEntity
  8
0
100
AcDbLine
 62
7
  6
CONTINUOUS
 10
207.9901006817
 20
-41.2366487167
 11
210.1901006817
 21
-41.2366487167
  0
LINE
  5
394
100
AcDbEntity
  8
0
100
AcDbLine
 62
7
  6
CONTINUOUS
 10
217.9901006817
 20
-41.2366487167
 11
220.1901006817
 21
-41.2366487167
  0
LINE
  5
395
100
AcDbEntity
  8
0
100
AcDbLine
 62
7
  6
CONTINUOUS
 10
227.9901006817
 20
-41.2366487167
 11
230.1901006817
 21
-41.2366487167
  0
LINE
  5
396
100
AcDbEntity
  8
0
100
AcDbLine
 62
7
  6
CONTINUOUS
 10
237.9901006817
 20
-41.2366487167
 11
240.1901006817
 21
-41.2366487167
  0
LINE
  5
397
100
AcDbEntity
  8
0
100
AcDbLine
 62
7
  6
CONTINUOUS
 10
247.9901006817
 20
-41.2366487167
 11
250.1901006817
 21
-41.2366487167
  0
LINE
  5
398
100
AcDbEntity
  8
0
100
AcDbLine
 62
7
  6
CONTINUOUS
 10
257.9901006817
 20
-41.2366487167
 11
260.1901006817
 21
-41.2366487167
  0
LINE
  5
399
100
AcDbEntity
  8
0
100
AcDbLine
 62
7
  6
CONTINUOUS
 10
267.9901006817
 20
-41.2366487167
 11
270.1901006817
 21
-41.2366487167
  0
LINE
  5
39A
100
AcDbEntity
  8
0
100
AcDbLine
 62
7
  6
CONTINUOUS
 10
187.9901006817
 20
-41.2366487167
 11
187.9901006817
 21
-45.4366487167
  0
LINE
  5
39B
100
AcDbEntity
  8
0
100
AcDbLine
 62
7
  6
CONTINUOUS
 10
190.1901006817
 20
-41.2366487167
 11
190.1901006817
 21
-45.4366487167
  0
LINE
  5
39C
100
AcDbEntity
  8
0
100
AcDbLine
 62
7
  6
CONTINUOUS
 10
197.9901006817
 20
-41.2366487167
 11
197.9901006817
 21
-45.4366487167
  0
LINE
  5
39D
100
AcDbEntity
  8
0
100
AcDbLine
 62
7
  6
CONTINUOUS
 10
200.1901006817
 20
-41.2366487167
 11
200.1901006817
 21
-45.4366487167
  0
LINE
  5
39E
100
AcDbEntity
  8
0
100
AcDbLine
 62
7
  6
CONTINUOUS
 10
212.0901006817
 20
-16.2366487167
 11
226.0901006817
 21
-16.2366487167
  0
LINE
  5
39F
100
AcDbEntity
  8
0
100
AcDbLine
 62
7
  6
CONTINUOUS
 10
207.9901006817
 20
-41.2366487167
 11
207.9901006817
 21
-45.4366487167
  0
LINE
  5
3A0
100
AcDbEntity
  8
0
100
AcDbLine
 62
7
  6
CONTINUOUS
 10
210.1901006817
 20
-41.2366487167
 11
210.1901006817
 21
-45.4366487167
  0
LINE
  5
3A1
100
AcDbEntity
  8
0
100
AcDbLine
 62
7
  6
CONTINUOUS
 10
226.0901006817
 20
-9.2366487167
 11
212.0901006817
 21
-9.2366487167
  0
LINE
  5
3A2
100
AcDbEntity
  8
0
100
AcDbLine
 62
7
  6
CONTINUOUS
 10
217.9901006817
 20
-41.2366487167
 11
217.9901006817
 21
-45.4366487167
  0
LINE
  5
3A3
100
AcDbEntity
  8
0
100
AcDbLine
 62
7
  6
CONTINUOUS
 10
220.1901006817
 20
-41.2366487167
 11
220.1901006817
 21
-45.4366487167
  0
LINE
  5
3A4
100
AcDbEntity
  8
0
100
AcDbLine
 62
7
  6
CONTINUOUS
 10
227.9901006817
 20
-41.2366487167
 11
227.9901006817
 21
-45.4366487167
  0
LINE
  5
3A5
100
AcDbEntity
  8
0
100
AcDbLine
 62
7
  6
CONTINUOUS
 10
283.0901006817
 20
4.7633512833
 11
115.0901006817
 21
4.7633512833
  0
LINE
  5
3A6
100
AcDbEntity
  8
0
100
AcDbLine
 62
7
  6
CONTINUOUS
 10
230.1901006817
 20
-41.2366487167
 11
230.1901006817
 21
-45.4366487167
  0
LINE
  5
3A7
100
AcDbEntity
  8
0
100
AcDbLine
 62
7
  6
CONTINUOUS
 10
237.9901006817
 20
-41.2366487167
 11
237.9901006817
 21
-45.4366487167
  0
LINE
  5
3A8
100
AcDbEntity
  8
0
100
AcDbLine
 62
7
  6
CONTINUOUS
 10
240.1901006817
 20
-41.2366487167
 11
240.1901006817
 21
-45.4366487167
  0
LINE
  5
3A9
100
AcDbEntity
  8
0
100
AcDbLine
 62
7
  6
CONTINUOUS
 10
247.9901006817
 20
-41.2366487167
 11
247.9901006817
 21
-45.4366487167
  0
LINE
  5
3AA
100
AcDbEntity
  8
0
100
AcDbLine
 62
7
  6
CONTINUOUS
 10
250.1901006817
 20
-41.2366487167
 11
250.1901006817
 21
-45.4366487167
  0
LINE
  5
3AB
100
AcDbEntity
  8
0
100
AcDbLine
 62
7
  6
CONTINUOUS
 10
257.9901006817
 20
-41.2366487167
 11
257.9901006817
 21
-45.4366487167
  0
LINE
  5
3AC
100
AcDbEntity
  8
0
100
AcDbLine
 62
7
  6
CONTINUOUS
 10
260.1901006817
 20
-41.2366487167
 11
260.1901006817
 21
-45.4366487167
  0
LINE
  5
3AD
100
AcDbEntity
  8
0
100
AcDbLine
 62
7
  6
CONTINUOUS
 10
267.9901006817
 20
-41.2366487167
 11
267.9901006817
 21
-45.4366487167
  0
LINE
  5
3AE
100
AcDbEntity
  8
0
100
AcDbLine
 62
7
  6
CONTINUOUS
 10
270.1901006817
 20
-41.2366487167
 11
270.1901006817
 21
-45.4366487167
  0
LINE
  5
3AF
100
AcDbEntity
  8
0
100
AcDbLine
 62
7
  6
CONTINUOUS
 10
283.0901006817
 20
-50.2366487167
 11
283.0901006817
 21
4.7633512833
  0
LINE
  5
3B0
100
AcDbEntity
  8
0
100
AcDbLine
 62
7
  6
CONTINUOUS
 10
135.1916291642
 20
227.5721495844
 11
135.1916291642
 21
201.3721495844
  0
LINE
  5
3B1
100
AcDbEntity
  8
0
100
AcDbLine
 62
7
  6
CONTINUOUS
 10
140.1916291642
 20
196.3721495844
 11
185.1916291642
 21
196.3721495844
  0
LINE
  5
3B2
100
AcDbEntity
  8
0
100
AcDbLine
 62
7
  6
CONTINUOUS
 10
185.1916291642
 20
232.5721495844
 11
140.1916291642
 21
232.5721495844
  0
LINE
  5
3B3
100
AcDbEntity
  8
0
100
AcDbLine
 62
7
  6
CONTINUOUS
 10
190.1916291642
 20
201.3721495844
 11
190.1916291642
 21
227.5721495844
  0
LINE
  5
3B4
100
AcDbEntity
  8
0
100
AcDbLine
 62
7
  6
CONTINUOUS
 10
-69.1228184768
 20
-69.7544338666
 11
-69.1228184768
 21
-247.7544338666
  0
LINE
  5
3B5
100
AcDbEntity
  8
0
100
AcDbLine
 62
7
  6
CONTINUOUS
 10
-59.1228184768
 20
-257.7544338666
 11
278.8771815232
 21
-257.7544338666
  0
LINE
  5
3B6
100
AcDbEntity
  8
0
100
AcDbLine
 62
7
  6
CONTINUOUS
 10
278.8771815232
 20
-59.7544338666
 11
-59.1228184768
 21
-59.7544338666
  0
LINE
  5
3B7
100
AcDbEntity
  8
0
100
AcDbLine
 62
7
  6
CONTINUOUS
 10
288.8771815232
 20
-247.7544338666
 11
288.8771815232
 21
-69.7544338666
  0
LINE
  5
3B8
100
AcDbEntity
  8
0
100
AcDbLine
 62
7
  6
CONTINUOUS
 10
-57.0818855705
 20
-271.2521549249
 11
-64.5818855705
 21
-278.7521549249
  0
LINE
  5
3B9
100
AcDbEntity
  8
0
100
AcDbLine
 62
7
  6
CONTINUOUS
 10
-64.5818855705
 20
-435.2521549249
 11
-57.0818855705
 21
-442.7521549249
  0
LINE
  5
3BA
100
AcDbEntity
  8
0
100
AcDbLine
 62
7
  6
CONTINUOUS
 10
-64.5818855705
 20
-278.7521549249
 11
-64.5818855705
 21
-435.2521549249
  0
LINE
  5
3BB
100
AcDbEntity
  8
0
100
AcDbLine
 62
7
  6
CONTINUOUS
 10
-57.0818855705
 20
-442.7521549249
 11
259.4181144295
 21
-442.7521549249
  0
LINE
  5
3BC
100
AcDbEntity
  8
0
100
AcDbLine
 62
7
  6
CONTINUOUS
 10
259.4181144295
 20
-271.2521549249
 11
-57.0818855705
 21
-271.2521549249
  0
LINE
  5
3BD
100
AcDbEntity
  8
0
100
AcDbLine
 62
7
  6
CONTINUOUS
 10
266.9181144295
 20
-435.2521549249
 11
266.9181144295
 21
-278.7521549249
  0
LINE
  5
3BE
100
AcDbEntity
  8
0
100
AcDbLine
 62
7
  6
CONTINUOUS
 10
259.4181144295
 20
-442.7521549249
 11
266.9181144295
 21
-435.2521549249
  0
LINE
  5
3BF
100
AcDbEntity
  8
0
100
AcDbLine
 62
7
  6
CONTINUOUS
 10
266.9181144295
 20
-278.7521549249
 11
259.4181144295
 21
-271.2521549249
  0
ARC
  5
3C0
100
AcDbEntity
  8
0
100
AcDbCircle
 62
7
  6
CONTINUOUS
 10
116.1605591023
 20
225.1576871303
 40
10.0
100
AcDbArc
 50
45.0
 51
90.0
  0
ARC
  5
3C1
100
AcDbEntity
  8
0
100
AcDbCircle
 62
7
  6
CONTINUOUS
 10
-61.8394408977
 20
225.1576871303
 40
10.0
100
AcDbArc
 50
90.0
 51
135.0
  0
CIRCLE
  5
3C2
100
AcDbEntity
  8
0
100
AcDbCircle
 62
7
  6
CONTINUOUS
 10
103.1605591023
 20
226.1576871303
 40
1.7
  0
CIRCLE
  5
3C3
100
AcDbEntity
  8
0
100
AcDbCircle
 62
7
  6
CONTINUOUS
 10
-48.8394408977
 20
226.1576871303
 40
1.7
  0
ARC
  5
3C4
100
AcDbEntity
  8
0
100
AcDbCircle
 62
7
  6
CONTINUOUS
 10
115.5562088845
 20
202.6311298286
 40
10.0
100
AcDbArc
 50
45.0
 51
90.0
  0
ARC
  5
3C5
100
AcDbEntity
  8
0
100
AcDbCircle
 62
7
  6
CONTINUOUS
 10
-62.4437911155
 20
202.6311298286
 40
10.0
100
AcDbArc
 50
90.0
 51
135.0
  0
CIRCLE
  5
3C6
100
AcDbEntity
  8
0
100
AcDbCircle
 62
7
  6
CONTINUOUS
 10
102.5562088845
 20
203.6311298286
 40
1.7
  0
CIRCLE
  5
3C7
100
AcDbEntity
  8
0
100
AcDbCircle
 62
7
  6
CONTINUOUS
 10
-49.4437911155
 20
203.6311298286
 40
1.7
  0
ARC
  5
3C8
100
AcDbEntity
  8
0
100
AcDbCircle
 62
7
  6
CONTINUOUS
 10
-62.1092716916
 20
175.6387461199
 40
10.0
100
AcDbArc
 50
90.0
 51
135.0
  0
ARC
  5
3C9
100
AcDbEntity
  8
0
100
AcDbCircle
 62
7
  6
CONTINUOUS
 10
275.8907283084
 20
175.6387461199
 40
10.0
100
AcDbArc
 50
45.0
 51
90.0
  0
CIRCLE
  5
3CA
100
AcDbEntity
  8
0
100
AcDbCircle
 62
7
  6
CONTINUOUS
 10
-49.1092716916
 20
176.6387461199
 40
1.7
  0
CIRCLE
  5
3CB
100
AcDbEntity
  8
0
100
AcDbCircle
 62
7
  6
CONTINUOUS
 10
262.8907283084
 20
176.6387461199
 40
1.7
  0
ARC
  5
3CC
100
AcDbEntity
  8
0
100
AcDbCircle
 62
7
  6
CONTINUOUS
 10
-62.4969191865
 20
150.7011064416
 40
10.0
100
AcDbArc
 50
90.0
 51
135.0
  0
ARC
  5
3CD
100
AcDbEntity
  8
0
100
AcDbCircle
 62
7
  6
CONTINUOUS
 10
275.5030808135
 20
150.7011064416
 40
10.0
100
AcDbArc
 50
45.0
 51
90.0
  0
CIRCLE
  5
3CE
100
AcDbEntity
  8
0
100
AcDbCircle
 62
7
  6
CONTINUOUS
 10
-49.4969191866
 20
151.7011064416
 40
1.7
  0
CIRCLE
  5
3CF
100
AcDbEntity
  8
0
100
AcDbCircle
 62
7
  6
CONTINUOUS
 10
262.5030808134
 20
151.7011064416
 40
1.7
  0
CIRCLE
  5
3D0
100
AcDbEntity
  8
0
100
AcDbCircle
 62
7
  6
CONTINUOUS
 10
-64.1655466221
 20
108.3196401664
 40
1.7
  0
CIRCLE
  5
3D1
100
AcDbEntity
  8
0
100
AcDbCircle
 62
7
  6
CONTINUOUS
 10
251.8344533779
 20
108.3196401664
 40
1.7
  0
CIRCLE
  5
3D2
100
AcDbEntity
  8
0
100
AcDbCircle
 62
7
  6
CONTINUOUS
 10
251.0482221749
 20
42.0854766326
 40
1.7
  0
CIRCLE
  5
3D3
100
AcDbEntity
  8
0
100
AcDbCircle
 62
7
  6
CONTINUOUS
 10
-64.9517778251
 20
42.0854766326
 40
1.7
  0
CIRCLE
  5
3D4
100
AcDbEntity
  8
0
100
AcDbCircle
 62
7
  6
CONTINUOUS
 10
80.0482221749
 20
37.0854766326
 40
1.7
  0
CIRCLE
  5
3D5
100
AcDbEntity
  8
0
100
AcDbCircle
 62
7
  6
CONTINUOUS
 10
106.0482221749
 20
37.0854766326
 40
1.7
  0
ARC
  5
3D6
100
AcDbEntity
  8
0
100
AcDbCircle
 62
7
  6
CONTINUOUS
 10
67.2774637162
 20
-21.7109979915
 40
4.0
100
AcDbArc
 50
270.0
 51
90.0
  0
ARC
  5
3D7
100
AcDbEntity
  8
0
100
AcDbCircle
 62
7
  6
CONTINUOUS
 10
62.2774637162
 20
-21.7109979915
 40
4.0
100
AcDbArc
 50
90.0
 51
270.0
  0
ARC
  5
3D8
100
AcDbEntity
  8
0
100
AcDbCircle
 62
7
  6
CONTINUOUS
 10
-12.2225362838
 20
-11.7109979915
 40
3.5
100
AcDbArc
 50
90.0
 51
270.0
  0
ARC
  5
3D9
100
AcDbEntity
  8
0
100
AcDbCircle
 62
7
  6
CONTINUOUS
 10
1.7774637162
 20
-11.7109979915
 40
3.5
100
AcDbArc
 50
270.0
 51
90.0
  0
CIRCLE
  5
3DA
100
AcDbEntity
  8
0
100
AcDbCircle
 62
7
  6
CONTINUOUS
 10
10.0274637162
 20
-11.6109979915
 40
1.75
  0
CIRCLE
  5
3DB
100
AcDbEntity
  8
0
100
AcDbCircle
 62
7
  6
CONTINUOUS
 10
-20.4725362838
 20
-11.6109979915
 40
1.75
  0
CIRCLE
  5
3DC
100
AcDbEntity
  8
0
100
AcDbCircle
 62
7
  6
CONTINUOUS
 10
92.7774637162
 20
-21.7109979915
 40
1.7
  0
CIRCLE
  5
3DD
100
AcDbEntity
  8
0
100
AcDbCircle
 62
7
  6
CONTINUOUS
 10
-63.2225362838
 20
-21.7109979915
 40
1.7
  0
CIRCLE
  5
3DE
100
AcDbEntity
  8
0
100
AcDbCircle
 62
7
  6
CONTINUOUS
 10
56.2774637162
 20
-21.7109979915
 40
1.5
  0
CIRCLE
  5
3DF
100
AcDbEntity
  8
0
100
AcDbCircle
 62
7
  6
CONTINUOUS
 10
73.2774637162
 20
-21.7109979915
 40
1.5
  0
CIRCLE
  5
3E0
100
AcDbEntity
  8
0
100
AcDbCircle
 62
7
  6
CONTINUOUS
 10
164.0901006817
 20
-16.7366487167
 40
15.0
  0
CIRCLE
  5
3E1
100
AcDbEntity
  8
_ACHSEN
100
AcDbCircle
 62
7
  6
CONTINUOUS
 10
250.3571006817
 20
-12.7366487167
 40
5.5
  0
ARC
  5
3E2
100
AcDbEntity
  8
0
100
AcDbCircle
 62
7
  6
CONTINUOUS
 10
212.0901006817
 20
-12.7366487167
 40
3.5
100
AcDbArc
 50
90.0
 51
270.0
  0
ARC
  5
3E3
100
AcDbEntity
  8
0
100
AcDbCircle
 62
7
  6
CONTINUOUS
 10
226.0901006817
 20
-12.7366487167
 40
3.5
100
AcDbArc
 50
270.0
 51
90.0
  0
CIRCLE
  5
3E4
100
AcDbEntity
  8
0
100
AcDbCircle
 62
7
  6
CONTINUOUS
 10
203.8401006817
 20
-12.6366487167
 40
1.75
  0
CIRCLE
  5
3E5
100
AcDbEntity
  8
0
100
AcDbCircle
 62
7
  6
CONTINUOUS
 10
234.3401006817
 20
-12.6366487167
 40
1.75
  0
CIRCLE
  5
3E6
100
AcDbEntity
  8
0
100
AcDbCircle
 62
7
  6
CONTINUOUS
 10
121.0901006817
 20
-22.7366487167
 40
1.7
  0
CIRCLE
  5
3E7
100
AcDbEntity
  8
0
100
AcDbCircle
 62
7
  6
CONTINUOUS
 10
277.0901006817
 20
-22.7366487167
 40
1.7
  0
CIRCLE
  5
3E8
100
AcDbEntity
  8
0
100
AcDbCircle
 62
7
  6
CONTINUOUS
 10
140.6901006817
 20
-28.2366487167
 40
1.7
  0
CIRCLE
  5
3E9
100
AcDbEntity
  8
0
100
AcDbCircle
 62
7
  6
CONTINUOUS
 10
185.6901006817
 20
-28.2366487167
 40
1.7
  0
CIRCLE
  5
3EA
100
AcDbEntity
  8
0
100
AcDbCircle
 62
7
  6
CONTINUOUS
 10
185.6901006817
 20
-3.2366487167
 40
1.7
  0
CIRCLE
  5
3EB
100
AcDbEntity
  8
0
100
AcDbCircle
 62
7
  6
CONTINUOUS
 10
140.6901006817
 20
-3.2366487167
 40
1.7
  0
ARC
  5
3EC
100
AcDbEntity
  8
0
100
AcDbCircle
 62
7
  6
CONTINUOUS
 10
185.1916291642
 20
201.3721495844
 40
5.0
100
AcDbArc
 50
270.0
 51
360.0
  0
ARC
  5
3ED
100
AcDbEntity
  8
0
100
AcDbCircle
 62
7
  6
CONTINUOUS
 10
185.1916291642
 20
227.5721495844
 40
5.0
100
AcDbArc
 50
0.0
 51
90.0
  0
ARC
  5
3EE
100
AcDbEntity
  8
0
100
AcDbCircle
 62
7
  6
CONTINUOUS
 10
140.1916291642
 20
227.5721495844
 40
5.0
100
AcDbArc
 50
90.0
 51
180.0
  0
ARC
  5
3EF
100
AcDbEntity
  8
0
100
AcDbCircle
 62
7
  6
CONTINUOUS
 10
140.1916291642
 20
201.3721495844
 40
5.0
100
AcDbArc
 50
180.0
 51
270.0
  0
CIRCLE
  5
3F0
100
AcDbEntity
  8
_ACHSEN
100
AcDbCircle
 62
7
  6
CONTINUOUS
 10
185.1916291642
 20
201.9721495844
 40
1.7
  0
CIRCLE
  5
3F1
100
AcDbEntity
  8
_ACHSEN
100
AcDbCircle
 62
7
  6
CONTINUOUS
 10
140.1916291642
 20
201.9721495844
 40
1.7
  0
CIRCLE
  5
3F2
100
AcDbEntity
  8
_ACHSEN
100
AcDbCircle
 62
7
  6
CONTINUOUS
 10
140.1916291642
 20
226.9721495844
 40
1.7
  0
CIRCLE
  5
3F3
100
AcDbEntity
  8
_ACHSEN
100
AcDbCircle
 62
7
  6
CONTINUOUS
 10
185.1916291642
 20
226.9721495844
 40
1.7
  0
CIRCLE
  5
3F4
100
AcDbEntity
  8
_ACHSEN
100
AcDbCircle
 62
7
  6
CONTINUOUS
 10
175.7916291642
 20
204.2221495844
 40
1.7
  0
CIRCLE
  5
3F5
100
AcDbEntity
  8
_ACHSEN
100
AcDbCircle
 62
7
  6
CONTINUOUS
 10
149.5916291642
 20
204.2221495844
 40
1.7
  0
CIRCLE
  5
3F6
100
AcDbEntity
  8
_ACHSEN
100
AcDbCircle
 62
7
  6
CONTINUOUS
 10
149.5916291642
 20
224.7221495844
 40
1.7
  0
CIRCLE
  5
3F7
100
AcDbEntity
  8
_ACHSEN
100
AcDbCircle
 62
7
  6
CONTINUOUS
 10
175.7916291642
 20
224.7221495844
 40
1.7
  0
CIRCLE
  5
3F8
100
AcDbEntity
  8
0
100
AcDbCircle
 62
7
  6
CONTINUOUS
 10
199.7059247839
 20
209.0226408354
 40
3.5
  0
CIRCLE
  5
3F9
100
AcDbEntity
  8
0
100
AcDbCircle
 62
7
  6
CONTINUOUS
 10
199.7059247839
 20
209.0226408354
 40
1.75
  0
CIRCLE
  5
3FA
100
AcDbEntity
  8
0
100
AcDbCircle
 62
7
  6
CONTINUOUS
 10
199.243090761
 20
225.2210945213
 40
3.5
  0
CIRCLE
  5
3FB
100
AcDbEntity
  8
_ACHSEN
100
AcDbCircle
 62
7
  6
CONTINUOUS
 10
199.243090761
 20
225.2210945213
 40
1.75
  0
ARC
  5
3FC
100
AcDbEntity
  8
0
100
AcDbCircle
 62
7
  6
CONTINUOUS
 10
-59.1228184768
 20
-69.7544338666
 40
10.0
100
AcDbArc
 50
90.0
 51
180.0
  0
ARC
  5
3FD
100
AcDbEntity
  8
0
100
AcDbCircle
 62
7
  6
CONTINUOUS
 10
-59.1228184768
 20
-247.7544338666
 40
10.0
100
AcDbArc
 50
180.0
 51
270.0
  0
ARC
  5
3FE
100
AcDbEntity
  8
0
100
AcDbCircle
 62
7
  6
CONTINUOUS
 10
278.8771815232
 20
-247.7544338666
 40
10.0
100
AcDbArc
 50
270.0
 51
360.0
  0
ARC
  5
3FF
100
AcDbEntity
  8
0
100
AcDbCircle
 62
7
  6
CONTINUOUS
 10
278.8771815232
 20
-69.7544338666
 40
10.0
100
AcDbArc
 50
0.0
 51
90.0
  0
CIRCLE
  5
400
100
AcDbEntity
  8
0
100
AcDbCircle
 62
7
  6
CONTINUOUS
 10
-61.1228184768
 20
-67.7544338666
 40
1.7
  0
CIRCLE
  5
401
100
AcDbEntity
  8
0
100
AcDbCircle
 62
7
  6
CONTINUOUS
 10
280.8771815232
 20
-67.7544338666
 40
1.7
  0
CIRCLE
  5
402
100
AcDbEntity
  8
0
100
AcDbCircle
 62
7
  6
CONTINUOUS
 10
-61.1228184768
 20
-249.7544338666
 40
1.7
  0
CIRCLE
  5
403
100
AcDbEntity
  8
0
100
AcDbCircle
 62
7
  6
CONTINUOUS
 10
280.8771815232
 20
-249.7544338666
 40
1.7
  0
ENDSEC
  0
SECTION
  2
OBJECTS
  0
DICTIONARY
  5
C
100
AcDbDictionary
280
0
281
1
  3
ACAD_GROUP
350
D
  3
ACAD_MLINESTYLE
350
17
  3
ACAD_LAYOUT
350
1A
  3
ACAD_PLOTSETTINGS
350
19
  3
ACAD_PLOTSTYLENAME
350
E
  0
DICTIONARY
  5
D
102
{ACAD_REACTORS
330
C
102
}
100
AcDbDictionary
280
0
281
1
  0
ACDBDICTIONARYWDFLT
  5
E
102
{ACAD_REACTORS
330
C
102
}
100
AcDbDictionary
281
1
  3
Normal
350
F
100
AcDbDictionaryWithDefault
340
F
  0
DICTIONARY
  5
17
102
{ACAD_REACTORS
330
C
102
}
100
AcDbDictionary
280
0
281
1
  3
Standard
350
18
  0
DICTIONARY
  5
19
102
{ACAD_REACTORS
330
C
102
}
100
AcDbDictionary
281
1
  0
DICTIONARY
  5
1A
102
{ACAD_REACTORS
330
C
102
}
100
AcDbDictionary
281
1
  3
Model
350
404
  3
Layout1
350
405
  0
ACDBPLACEHOLDER
  5
F
102
{ACAD_REACTORS
330
E
102
}
  0
MLINESTYLE
  5
18
102
{ACAD_REACTORS
330
17
102
}
100
AcDbMlineStyle
  2
STANDARD
 70
0
  3

 62
256
 51
90.0
 52
90.0
 71
2
 49
0.5
 62
256
  6
BYLAYER
 49
-0.5
 62
256
  6
BYLAYER
  0
LAYOUT
  5
404
102
{ACAD_REACTORS
330
1A
102
}
100
AcDbPlotSettings
  1

  2
none_device
  4

  6

 40
0.0
 41
0.0
 42
0.0
 43
0.0
 44
210.0
 45
297.0
 46
0.0
 47
0.0
 48
0.0
 49
0.0
140
0.0
141
0.0
142
1.0
143
1.0
 70
1024
 72
1
 73
0
 74
0
  7

 75
0
147
1.0
148
0.0
149
0.0
100
AcDbLayout
  1
Model
 70
0
 71
0
 10
0.0
 20
0.0
 11
210.0
 21
297.0
 12
0.0
 22
0.0
 32
0.0
 14
0.0
 24
0.0
 34
0.0
 15
0.0
 25
0.0
 35
0.0
146
0.0
 13
0.0
 23
0.0
 33
0.0
 16
1.0
 26
0.0
 36
0.0
 17
0.0
 27
1.0
 37
0.0
 76
0
330
20F
345
0
346
0
  0
LAYOUT
  5
405
102
{ACAD_REACTORS
330
1A
102
}
100
AcDbPlotSettings
  1

  2
none_device
  4

  6

 40
0.0
 41
0.0
 42
0.0
 43
0.0
 44
210.0
 45
297.0
 46
0.0
 47
0.0
 48
0.0
 49
0.0
140
0.0
141
0.0
142
1.0
143
1.0
 70
0
 72
1
 73
0
 74
0
  7

 75
0
147
1.0
148
0.0
149
0.0
100
AcDbLayout
  1
Layout1
 70
0
 71
1
 10
0.0
 20
0.0
 11
210.0
 21
297.0
 12
0.0
 22
0.0
 32
0.0
 14
0.0
 24
0.0
 34
0.0
 15
0.0
 25
0.0
 35
0.0
146
0.0
 13
0.0
 23
0.0
 33
0.0
 16
1.0
 26
0.0
 36
0.0
 17
0.0
 27
1.0
 37
0.0
 76
0
330
210
345
0
346
0
  0
ENDSEC
  0
EOF
